<svg width="103" height="26" viewBox="0 0 103 26" fill="none" xmlns="http://www.w3.org/2000/svg">
<path fill-rule="evenodd" clip-rule="evenodd" d="M48.1938 16.4047C48.1938 15.9593 48.1088 15.5403 47.9387 15.1476C47.7686 14.7548 47.5367 14.41 47.2429 14.1132C46.9491 13.8163 46.6043 13.5813 46.2085 13.4081C45.8127 13.2349 45.389 13.1483 44.9375 13.1483C44.4798 13.1483 44.0531 13.2349 43.6572 13.4081C43.2614 13.5813 42.9181 13.8147 42.6274 14.1085C42.3367 14.4023 42.1064 14.7471 41.9363 15.1429C41.7662 15.5388 41.6812 15.9593 41.6812 16.4047C41.6812 16.85 41.7662 17.2705 41.9363 17.6664C42.1064 18.0622 42.3367 18.407 42.6274 18.7008C42.9181 18.9946 43.2614 19.2281 43.6572 19.4012C44.0531 19.5744 44.4798 19.661 44.9375 19.661C45.389 19.661 45.8127 19.5744 46.2085 19.4012C46.6043 19.2281 46.9491 18.993 47.2429 18.6962C47.5367 18.3993 47.7686 18.0545 47.9387 17.6617C48.1088 17.269 48.1938 16.85 48.1938 16.4047ZM44.9375 11.2094C46.1683 11.2094 47.2537 11.5897 48.1938 12.3505V7.72107C48.1938 7.44275 48.2851 7.21236 48.4675 7.02991C48.65 6.84745 48.8804 6.75623 49.1587 6.75623C49.4308 6.75623 49.6612 6.84745 49.8499 7.02991C50.0385 7.21236 50.1328 7.44275 50.1328 7.72107V16.4047C50.1328 17.8519 49.6257 19.0765 48.6113 20.0785C47.5846 21.0928 46.36 21.6 44.9375 21.6C43.5026 21.6 42.278 21.0928 41.2637 20.0785C40.2493 19.0642 39.7422 17.8396 39.7422 16.4047C39.7422 14.9698 40.2493 13.7452 41.2637 12.7308C42.278 11.7165 43.5026 11.2094 44.9375 11.2094ZM61.6278 16.4047C61.6278 17.8519 61.1207 19.0765 60.1063 20.0785C59.0796 21.0928 57.855 21.6 56.4325 21.6C54.9976 21.6 53.773 21.0928 52.7587 20.0785C51.7443 19.0642 51.2372 17.8396 51.2372 16.4047C51.2372 14.9698 51.7443 13.7452 52.7587 12.7308C53.773 11.7165 54.9976 11.2094 56.4325 11.2094C57.855 11.2094 59.0796 11.7165 60.1063 12.7308C60.6135 13.238 60.9923 13.7977 61.2428 14.41C61.4933 15.0223 61.6216 15.6872 61.6278 16.4047ZM56.4325 13.1483C55.9748 13.1483 55.5481 13.2349 55.1522 13.4081C54.7564 13.5813 54.4131 13.8147 54.1224 14.1085C53.8317 14.4023 53.6014 14.7471 53.4313 15.1429C53.2612 15.5388 53.1762 15.9593 53.1762 16.4047C53.1762 16.85 53.2612 17.2705 53.4313 17.6664C53.6014 18.0622 53.8317 18.407 54.1224 18.7008C54.4131 18.9946 54.7564 19.2281 55.1522 19.4012C55.5481 19.5744 55.9748 19.661 56.4325 19.661C56.884 19.661 57.3077 19.5744 57.7035 19.4012C58.0993 19.2281 58.4441 18.993 58.7379 18.6962C59.0317 18.3993 59.2636 18.0545 59.4337 17.6617C59.6038 17.269 59.6888 16.85 59.6888 16.4047C59.6888 15.9593 59.6038 15.5403 59.4337 15.1476C59.2636 14.7548 59.0317 14.41 58.7379 14.1132C58.4441 13.8163 58.0993 13.5813 57.7035 13.4081C57.3077 13.2349 56.884 13.1483 56.4325 13.1483ZM70.6365 18.6591C70.9148 18.6591 71.1452 18.7503 71.3276 18.9327C71.5101 19.1152 71.6013 19.3456 71.6013 19.6239C71.6013 19.896 71.4993 20.1342 71.2952 20.3383C70.3365 21.1794 69.2078 21.6 67.9089 21.6C66.474 21.6 65.2494 21.0928 64.2351 20.0785C63.2208 19.0642 62.7136 17.8396 62.7136 16.4047C62.7136 14.9698 63.2208 13.7452 64.2351 12.7308C65.2494 11.7165 66.474 11.2094 67.9089 11.2094C69.214 11.2094 70.3427 11.6299 71.2952 12.4711C71.5178 12.669 71.6292 12.9133 71.6292 13.204C71.6292 13.4823 71.5379 13.7142 71.3555 13.8998C71.173 14.0853 70.9426 14.1781 70.6643 14.1781C70.4293 14.1781 70.219 14.1039 70.0335 13.9554C69.718 13.6895 69.3871 13.4885 69.0408 13.3524C68.6944 13.2163 68.3171 13.1483 67.9089 13.1483C67.4574 13.1483 67.0338 13.2334 66.6379 13.4034C66.2421 13.5735 65.8958 13.8055 65.5989 14.0992C65.302 14.393 65.0685 14.7378 64.8984 15.1337C64.7284 15.5295 64.6433 15.9532 64.6433 16.4047C64.6433 16.8562 64.7284 17.2798 64.8984 17.6757C65.0685 18.0715 65.302 18.4163 65.5989 18.7101C65.8958 19.0039 66.2421 19.2358 66.6379 19.4059C67.0338 19.576 67.4574 19.661 67.9089 19.661C68.3171 19.661 68.6944 19.5945 69.0408 19.4615C69.3871 19.3286 69.7149 19.1291 70.0242 18.8632C70.1974 18.7333 70.4015 18.6652 70.6365 18.6591ZM72.7243 20.6259V7.73035C72.7243 7.45821 72.8186 7.22783 73.0072 7.03919C73.1959 6.85054 73.4262 6.75623 73.6984 6.75623C73.9643 6.75623 74.1916 6.85054 74.3803 7.03919C74.5689 7.22783 74.6632 7.45821 74.6632 7.73035V14.9667L80.2111 11.3578C80.3657 11.2588 80.5389 11.2094 80.7306 11.2094C80.8667 11.2094 80.9935 11.2341 81.111 11.2836C81.2285 11.333 81.3305 11.4026 81.4171 11.4923C81.5037 11.582 81.5733 11.6856 81.6259 11.8031C81.6784 11.9206 81.7047 12.0443 81.7047 12.1742C81.7047 12.5206 81.581 12.7772 81.3336 12.9442L77.4464 15.4677L81.4357 19.9579C81.615 20.1558 81.7047 20.3815 81.7047 20.6351C81.7047 20.765 81.6784 20.8887 81.6259 21.0062C81.5733 21.1237 81.5037 21.2273 81.4171 21.317C81.3305 21.4067 81.2285 21.4763 81.111 21.5258C80.9935 21.5752 80.8667 21.6 80.7306 21.6C80.4708 21.6 80.2544 21.5165 80.0812 21.3495L75.7951 16.5345L74.6632 17.2767V20.6259C74.6632 20.8918 74.5689 21.1206 74.3803 21.3124C74.1916 21.5041 73.9643 21.6 73.6984 21.6C73.4262 21.6 73.1959 21.5041 73.0072 21.3124C72.8186 21.1206 72.7243 20.8918 72.7243 20.6259ZM91.0752 15.4398C90.9701 15.0996 90.8139 14.7889 90.6067 14.5074C90.3995 14.226 90.1583 13.9848 89.8831 13.7838C89.6078 13.5828 89.3048 13.4266 88.9739 13.3153C88.643 13.204 88.3013 13.1483 87.9488 13.1483C87.5962 13.1483 87.253 13.204 86.919 13.3153C86.585 13.4266 86.2788 13.5828 86.0005 13.7838C85.7222 13.9848 85.481 14.226 85.2769 14.5074C85.0728 14.7889 84.9212 15.0996 84.8223 15.4398H91.0752ZM90.6577 18.6776C90.9361 18.6776 91.1664 18.7688 91.3489 18.9513C91.5314 19.1337 91.6226 19.3641 91.6226 19.6425C91.6226 19.9146 91.5298 20.1465 91.3443 20.3383C90.3856 21.1794 89.2538 21.6 87.9488 21.6C86.5139 21.6 85.2893 21.0928 84.2749 20.0785C83.2606 19.0642 82.7534 17.8396 82.7534 16.4047C82.7534 14.9698 83.2606 13.7452 84.2749 12.7308C85.2893 11.7165 86.5139 11.2094 87.9488 11.2094C89.3713 11.2094 90.5959 11.7165 91.6226 12.7308C92.1297 13.2318 92.5101 13.79 92.7637 14.4054C93.0173 15.0208 93.1441 15.6872 93.1441 16.4047C93.1441 16.683 93.0497 16.9134 92.8611 17.0958C92.6725 17.2783 92.4421 17.3695 92.1699 17.3695H84.8223C84.9274 17.7097 85.0821 18.0205 85.2862 18.3019C85.4903 18.5833 85.7299 18.8245 86.0051 19.0255C86.2804 19.2265 86.5834 19.3827 86.9143 19.494C87.2452 19.6053 87.59 19.661 87.9488 19.661C88.357 19.661 88.7311 19.5992 89.0713 19.4755C89.4115 19.3518 89.7269 19.1662 90.0176 18.9188C90.2031 18.7642 90.4165 18.6838 90.6577 18.6776ZM96.1503 12.1742V12.3597C96.6142 11.9886 97.1182 11.7041 97.6625 11.5062C98.2068 11.3083 98.7881 11.2094 99.4066 11.2094C99.6788 11.2094 99.971 11.2279 100.283 11.265C100.596 11.3021 100.883 11.3686 101.146 11.4645C101.409 11.5603 101.627 11.6918 101.8 11.8588C101.973 12.0258 102.06 12.2422 102.06 12.5082C102.06 12.6442 102.034 12.771 101.981 12.8886C101.929 13.0061 101.859 13.1097 101.772 13.1993C101.686 13.289 101.584 13.3586 101.466 13.4081C101.349 13.4576 101.222 13.4823 101.086 13.4823C100.968 13.4823 100.832 13.4483 100.678 13.3802C100.288 13.2256 99.8643 13.1483 99.4066 13.1483C98.9551 13.1483 98.5315 13.2334 98.1356 13.4034C97.7398 13.5735 97.395 13.8055 97.1012 14.0992C96.8074 14.393 96.5755 14.7378 96.4054 15.1337C96.2353 15.5295 96.1503 15.9532 96.1503 16.4047V20.6351C96.1503 20.9011 96.056 21.1284 95.8673 21.317C95.6787 21.5057 95.4514 21.6 95.1854 21.6C94.9133 21.6 94.6829 21.5057 94.4943 21.317C94.3056 21.1284 94.2113 20.9011 94.2113 20.6351V12.1742C94.2113 11.9082 94.3056 11.681 94.4943 11.4923C94.6829 11.3037 94.9133 11.2094 95.1854 11.2094C95.4514 11.2094 95.6787 11.3037 95.8673 11.4923C96.056 11.681 96.1503 11.9082 96.1503 12.1742Z" fill="#0050B3"/>
<path fill-rule="evenodd" clip-rule="evenodd" d="M35.2115 9.90089C34.4019 9.33914 32.5465 9.12848 31.096 9.40936C30.9273 8.00497 30.1514 6.77614 28.8021 5.68774L28.0262 5.12599L27.4865 5.93351C26.8118 6.9868 26.4744 8.4614 26.5756 9.86578C26.6094 10.3573 26.778 11.2351 27.2841 12.0075C26.8118 12.2883 25.8335 12.6394 24.5516 12.6394H0.16218L0.0947129 12.9203C-0.141423 14.3247 -0.141423 18.7134 2.62474 22.0839C4.71623 24.6469 7.81972 25.9459 11.9015 25.9459C20.7397 25.9459 27.2841 21.6977 30.3538 14.0087C31.5682 14.0438 34.1657 14.0087 35.4813 11.3755C35.5151 11.3053 35.5825 11.1648 35.8187 10.6382L35.9536 10.3573L35.2115 9.90089ZM19.6602 0H15.9495V3.51095H19.6602V0ZM19.6602 4.21314H15.9495V7.7241H19.6602V4.21314ZM15.2749 4.21314H11.5642V7.7241H15.2749V4.21314ZM10.8895 4.21314H7.17878V7.7241H10.8895V4.21314ZM6.50411 8.42629H2.79341V11.9372H6.50411V8.42629ZM10.8895 8.42629H7.17878V11.9372H10.8895V8.42629ZM15.2749 8.42629H11.5642V11.9372H15.2749V8.42629ZM19.6602 8.42629H15.9495V11.9372H19.6602V8.42629ZM24.0456 8.42629H20.3349V11.9372H24.0456V8.42629Z" fill="#0050B3"/>
</svg>
