<svg xmlns="http://www.w3.org/2000/svg" width="64" height="64" viewBox="0 0 48 48"><g fill="#fa8c16"><path d="M24 3C12.402 3 3 12.402 3 24s9.402 21 21 21 21-9.402 21-21S35.598 3 24 3zm0 38.438c-9.629 0-17.438-7.81-17.438-17.438 0-9.629 7.81-17.438 17.438-17.438 9.629 0 17.438 7.81 17.438 17.438 0 9.629-7.81 17.438-17.438 17.438zm0 0"/><path d="M29.23 14.844c-1.406-1.23-3.261-1.906-5.23-1.906-1.969 0-3.824.68-5.23 1.906-1.465 1.281-2.27 3-2.27 4.844v.355c0 .207.168.375.375.375h2.25a.375.375 0 00.375-.375v-.355c0-2.067 2.02-3.75 4.5-3.75s4.5 1.683 4.5 3.75c0 1.457-1.031 2.792-2.629 3.406a5.236 5.236 0 00-2.441 1.918 5.347 5.347 0 00-.934 3.043v1.008c0 .207.168.375.375.375h2.25a.375.375 0 00.375-.375V28a2.26 2.26 0 011.45-2.102c2.765-1.062 4.55-3.5 4.55-6.21.004-1.844-.8-3.563-2.266-4.844zm-7.105 19.468a1.875 1.875 0 103.751 0 1.875 1.875 0 00-3.751 0zm0 0"/></g></svg>