<svg width="484" height="258" viewBox="0 0 484 258" fill="none" xmlns="http://www.w3.org/2000/svg">
<g opacity="0.2">
<path d="M0 123.24C292.791 88.1773 484 149.296 484 149.296V257.804L0 257.809V123.24Z" fill="#999999"/>
<path d="M0 123.239C292.791 88.1767 481.287 148.826 481.287 148.826C428.167 137.741 156.534 88.6504 0 175.549V123.239Z" fill="#CCCCCC"/>
<path d="M0 204.832C235.086 94.1457 475.317 148.826 475.317 148.826C419.544 132.435 161.84 134.422 0 255.155V204.832Z" fill="#CCCCCC"/>
<path d="M59.9119 257.803C324.182 103.998 483.999 149.488 483.999 149.488C401.03 121.156 194.843 198.099 123.209 257.803H59.9119Z" fill="#CCCCCC"/>
<path d="M199.201 257.803C422.348 129.206 483.999 149.489 483.999 149.489C407.663 160.958 359.336 198.099 287.702 257.803H199.201Z" fill="#CCCCCC"/>
<path d="M353.095 257.804C442.26 183.602 484 149.489 484 149.489C484 158.305 450.011 186.162 443.377 257.804L353.098 258.001L353.095 257.804Z" fill="#CCCCCC"/>
<path d="M76.3525 0C67.3511 0 59.8169 6.28154 57.8841 14.6972C51.3156 14.7864 45.6825 18.7622 43.1673 24.4193L43.0638 24.3779C41.032 23.634 38.8448 23.2171 36.5553 23.2171C26.0888 23.2171 17.5895 31.7173 17.5895 42.1849C17.5895 52.6526 26.0888 61.1316 36.5553 61.1316C36.8824 61.1316 37.2065 61.1266 37.5296 61.1115C39.3522 61.019 41.1018 60.6676 42.7529 60.0958C45.0277 66.2326 50.9358 70.6059 57.8631 70.6059C63.226 70.6059 67.9727 67.9828 70.9005 63.9519C75.346 67.8031 81.1395 70.1293 87.4825 70.1293C96.2523 70.1293 103.991 65.6844 108.542 58.9147C111.969 62.3325 116.709 64.4495 121.932 64.4495C129.851 64.4495 136.613 59.5938 139.446 52.6956C142.427 55.8527 146.66 57.8159 151.344 57.8159C156.365 57.8159 160.866 55.5531 163.864 51.9909C167.1 54.5669 171.2 56.1161 175.657 56.1161C176.432 56.1161 177.187 56.0615 177.938 55.971C180.934 59.4249 185.36 61.6094 190.291 61.6094C198.276 61.6094 204.906 55.8722 206.334 48.3014C214.182 47.7255 220.367 41.1637 220.367 33.169C220.367 24.7948 213.588 18.0153 205.215 18.0153C199.142 18.0153 193.913 21.5854 191.493 26.7424C188.105 21.5952 182.28 18.2018 175.657 18.2018C170.361 18.2018 165.561 20.3785 162.122 23.8817C160.252 15.3815 152.674 9.01865 143.613 9.01865C138.515 9.01865 133.898 11.0297 130.492 14.3048C127.482 7.82225 120.927 3.31837 113.31 3.31837C107.143 3.31837 101.66 6.28159 98.1994 10.8434C97.038 10.5815 95.8333 10.4288 94.5928 10.4288C94.1624 10.4288 93.7297 10.4584 93.3077 10.491C90.198 4.27528 83.7751 0.00206576 76.353 0.00206576L76.3525 0Z" fill="#CCCCCC"/>
<path d="M310.981 78.8091C310.981 74.146 314.761 70.3652 319.424 70.3652H348.974C353.636 70.3652 357.417 74.146 357.417 78.8091H310.981Z" fill="#999999"/>
<path fill-rule="evenodd" clip-rule="evenodd" d="M408.074 140.027H357.417H357.417H310.981V121.028H342.642H357.417V102.029L399.209 106.251C402.146 106.509 404.808 108.087 406.443 110.541C407.484 111.675 408.065 113.156 408.074 114.695V140.027Z" fill="#999999"/>
<path d="M346.595 96.023L348.672 92.5618L345.054 90.3869L338.722 100.942L342.34 103.117L344.412 99.6625L349.896 103.813L342.642 114.695V121.028H310.981V78.8086H357.417V102.029H354.533L346.595 96.023Z" fill="#CCCCCC"/>
<path d="M342.642 114.696L349.896 103.814L344.412 99.6633L342.34 103.117L338.722 100.942L345.054 90.3877L348.672 92.5626L346.595 96.0238L354.533 102.03H357.417V121.029H342.642V114.696Z" fill="#CCCCCC"/>
<path d="M294.095 129.472C294.095 144.628 306.38 156.914 321.534 156.914C336.689 156.914 348.974 144.628 348.974 129.472C348.974 114.316 336.689 102.029 321.534 102.029C306.38 102.029 294.095 114.316 294.095 129.472Z" fill="#666666"/>
<path d="M306.759 129.472C306.759 137.633 313.374 144.249 321.534 144.249C329.695 144.249 336.309 137.633 336.309 129.472C336.309 121.311 329.695 114.695 321.534 114.695C313.374 114.695 306.759 121.311 306.759 129.472Z" fill="#CCCCCC"/>
<path d="M363.749 137.916C363.749 148.409 372.254 156.914 382.745 156.914C393.237 156.914 401.742 148.409 401.742 137.916C401.742 127.423 393.237 118.917 382.745 118.917C372.254 118.917 363.749 127.423 363.749 137.916Z" fill="#666666"/>
<path d="M374.302 137.916C374.302 142.579 378.083 146.359 382.745 146.359C387.408 146.359 391.188 142.579 391.188 137.916C391.188 133.252 387.408 129.472 382.745 129.472C378.083 129.472 374.302 133.252 374.302 137.916Z" fill="#CCCCCC"/>
</g>
</svg>
