<svg width="47" height="48" viewBox="0 0 47 48" fill="none" xmlns="http://www.w3.org/2000/svg">
<path d="M41.8029 19.1686C41.8029 20.033 41.1022 20.7337 40.2379 20.7337C39.3735 20.7337 38.6728 20.033 38.6728 19.1686C38.6728 18.3042 39.3735 17.6035 40.2379 17.6035C41.1022 17.6035 41.8029 18.3042 41.8029 19.1686Z" fill="#EFDBFF" stroke="#722ED1"/>
<path d="M32.7412 16.2173C32.7412 17.5705 31.6443 18.6674 30.2911 18.6674C28.938 18.6674 27.841 17.5705 27.841 16.2173C27.841 14.8642 28.938 13.7672 30.2911 13.7672C31.6443 13.7672 32.7412 14.8642 32.7412 16.2173Z" fill="white" stroke="#722ED1"/>
<path d="M37.5316 5.90023C37.5316 7.57924 36.1705 8.94035 34.4915 8.94035C32.8125 8.94035 31.4514 7.57924 31.4514 5.90023C31.4514 4.22122 32.8125 2.86011 34.4915 2.86011C36.1705 2.86011 37.5316 4.22122 37.5316 5.90023Z" fill="#EFDBFF" stroke="#722ED1"/>
<path d="M20.0429 28.9139L31.0305 42.5519C32.297 44.1804 31.1559 46.5556 29.0581 46.5556H3.20296C1.10521 46.5556 -0.03584 44.1805 1.23061 42.5519L12.2183 28.914C12.4331 28.6474 12.5502 28.3153 12.5502 27.9729V13.9805C12.5502 13.7043 12.7741 13.4805 13.0502 13.4805H19.211C19.4871 13.4805 19.711 13.7043 19.711 13.9805V27.9728C19.711 28.3152 19.8281 28.6473 20.0429 28.9139L20.4323 28.6002L20.0429 28.9139Z" fill="white" stroke="#722ED1"/>
<path d="M12.8424 33.7094C12.9373 33.6024 13.0735 33.5411 13.2165 33.5411H19.6135C19.7565 33.5411 19.8927 33.6024 19.9876 33.7094L27.2405 41.8878C27.5265 42.2104 27.2975 42.7196 26.8664 42.7196H5.9636C5.53244 42.7196 5.30344 42.2104 5.58951 41.8878L12.8424 33.7094Z" fill="#EFDBFF" stroke="#722ED1"/>
<path d="M11.8203 9.94031H20.4407C20.7168 9.94031 20.9407 10.1642 20.9407 10.4403V13.1605C20.9407 13.4366 20.7168 13.6605 20.4407 13.6605H11.8203C11.5442 13.6605 11.3203 13.4366 11.3203 13.1605V10.4403C11.3203 10.1642 11.5442 9.94031 11.8203 9.94031Z" fill="white" stroke="#722ED1"/>
<path d="M17.4006 4.72019C17.4006 5.74748 16.5678 6.58027 15.5405 6.58027C14.5132 6.58027 13.6804 5.74748 13.6804 4.72019C13.6804 3.69289 14.5132 2.86011 15.5405 2.86011C16.5678 2.86011 17.4006 3.69289 17.4006 4.72019Z" fill="white" stroke="#722ED1"/>
<path d="M11.5004 2.36008C11.5004 3.38738 10.6677 4.22016 9.64036 4.22016C8.61306 4.22016 7.78027 3.38738 7.78027 2.36008C7.78027 1.33279 8.61306 0.5 9.64036 0.5C10.6677 0.5 11.5004 1.33279 11.5004 2.36008Z" fill="#EFDBFF" stroke="#722ED1"/>
<path d="M45.7163 32.621V33.0687L45.7216 33.0693V44.2171C45.7216 46.066 44.209 47.5 42.3887 47.5H28.2237C26.3343 47.5 24.8908 45.9978 24.8908 44.2171C24.8908 41.2968 24.9851 38.4632 25.0798 35.6368L25.0815 35.5848C25.1755 32.7783 25.2693 29.9779 25.2693 27.1215C25.2693 26.8394 25.1649 26.5672 24.9761 26.3575L23.1585 24.338C23.0762 24.2465 23.1411 24.1008 23.2641 24.1008H45.5742C45.6526 24.1008 45.7163 24.1644 45.7163 24.2429V32.621Z" fill="white" stroke="#722ED1"/>
<path d="M25.2293 32.5906C25.311 32.6259 25.3995 32.664 25.4946 32.7045C26.0853 32.9567 26.9285 33.3065 27.94 33.6977C29.9608 34.4794 32.6635 35.4305 35.3731 36.0987C38.0661 36.7629 40.8323 37.1651 42.9508 36.7966C44.0168 36.6111 44.9661 36.2227 45.6509 35.5276C45.6748 35.5033 45.6984 35.4786 45.7216 35.4537V44.2167C45.7216 46.0655 44.209 47.4996 42.3887 47.4996H28.2237C26.3342 47.4996 24.8907 45.9973 24.8907 44.2167C24.8907 41.2962 24.9851 38.2097 25.0796 35.8515C25.1269 34.6729 25.1741 33.6771 25.2095 32.9761C25.2166 32.8354 25.2233 32.7066 25.2293 32.5906Z" fill="#EFDBFF" stroke="#722ED1"/>
</svg>
