<svg width="48" height="48" viewBox="0 0 48 48" fill="none" xmlns="http://www.w3.org/2000/svg">
<path d="M24 48C37.2548 48 48 37.2548 48 24C48 10.7452 37.2548 0 24 0C10.7452 0 0 10.7452 0 24C0 37.2548 10.7452 48 24 48Z" fill="#E1E6E9"/>
<path d="M42.8029 19.1686C42.8029 20.033 42.1022 20.7337 41.2379 20.7337C40.3735 20.7337 39.6728 20.033 39.6728 19.1686C39.6728 18.3042 40.3735 17.6035 41.2379 17.6035C42.1022 17.6035 42.8029 18.3042 42.8029 19.1686Z" fill="white" stroke="#222222"/>
<path d="M33.7412 16.2173C33.7412 17.5705 32.6443 18.6674 31.2911 18.6674C29.938 18.6674 28.841 17.5705 28.841 16.2173C28.841 14.8642 29.938 13.7672 31.2911 13.7672C32.6443 13.7672 33.7412 14.8642 33.7412 16.2173Z" fill="white" stroke="#222222"/>
<path d="M38.5316 5.9002C38.5316 7.57921 37.1705 8.94032 35.4915 8.94032C33.8125 8.94032 32.4514 7.57921 32.4514 5.9002C32.4514 4.22119 33.8125 2.86008 35.4915 2.86008C37.1705 2.86008 38.5316 4.22119 38.5316 5.9002Z" fill="white" stroke="#222222"/>
<path d="M21.0429 28.9139L32.0305 42.5518C33.297 44.1804 32.1559 46.5556 30.0581 46.5555H4.20296C2.10521 46.5555 0.96416 44.1804 2.23061 42.5519L13.2183 28.914C13.4331 28.6474 13.5502 28.3153 13.5502 27.9729V13.9804C13.5502 13.7043 13.7741 13.4804 14.0502 13.4804H20.211C20.4871 13.4804 20.711 13.7043 20.711 13.9804V27.9728C20.711 28.3152 20.8281 28.6472 21.0429 28.9139L21.4323 28.6002L21.0429 28.9139Z" fill="white" stroke="#222222"/>
<path d="M13.8424 33.7094C13.9373 33.6024 14.0735 33.5411 14.2165 33.5411H20.6135C20.7565 33.5411 20.8927 33.6024 20.9876 33.7094L28.2405 41.8878C28.5265 42.2104 28.2975 42.7196 27.8664 42.7196H6.9636C6.53244 42.7196 6.30344 42.2104 6.58951 41.8878L13.8424 33.7094Z" fill="#9254DE" stroke="#222222"/>
<path d="M12.8203 9.94034H21.4407C21.7168 9.94034 21.9407 10.1642 21.9407 10.4403V13.1605C21.9407 13.4366 21.7168 13.6605 21.4407 13.6605H12.8203C12.5442 13.6605 12.3203 13.4366 12.3203 13.1605V10.4403C12.3203 10.1642 12.5442 9.94034 12.8203 9.94034Z" fill="white" stroke="#222222"/>
<path d="M18.4006 4.72016C18.4006 5.74745 17.5678 6.58024 16.5405 6.58024C15.5132 6.58024 14.6804 5.74745 14.6804 4.72016C14.6804 3.69286 15.5132 2.86008 16.5405 2.86008C17.5678 2.86008 18.4006 3.69286 18.4006 4.72016Z" fill="white" stroke="#222222"/>
<path d="M12.5004 2.36008C12.5004 3.38738 11.6677 4.22016 10.6404 4.22016C9.61306 4.22016 8.78027 3.38738 8.78027 2.36008C8.78027 1.33279 9.61306 0.5 10.6404 0.5C11.6677 0.5 12.5004 1.33279 12.5004 2.36008Z" fill="white" stroke="#222222"/>
<path d="M46.7163 32.621V33.0687L46.7216 33.0693V44.2171C46.7216 46.066 45.209 47.5 43.3887 47.5H29.2237C27.3343 47.5 25.8908 45.9978 25.8908 44.2171C25.8908 41.2968 25.9851 38.4632 26.0798 35.6368L26.0815 35.5848C26.1755 32.7783 26.2693 29.9779 26.2693 27.1215C26.2693 26.8394 26.1649 26.5672 25.9761 26.3575L24.1585 24.338C24.0762 24.2465 24.1411 24.1008 24.2641 24.1008H46.5742C46.6526 24.1008 46.7163 24.1644 46.7163 24.2429V32.621Z" fill="white" stroke="#222222"/>
<path d="M26.2293 32.5906C26.311 32.6259 26.3995 32.664 26.4946 32.7045C27.0853 32.9567 27.9285 33.3065 28.94 33.6977C30.9608 34.4794 33.6635 35.4305 36.3731 36.0987C39.0661 36.7629 41.8323 37.1651 43.9508 36.7966C45.0168 36.6111 45.9661 36.2227 46.6509 35.5276C46.6748 35.5033 46.6984 35.4786 46.7216 35.4537V44.2167C46.7216 46.0655 45.209 47.4996 43.3887 47.4996H29.2237C27.3342 47.4996 25.8907 45.9973 25.8907 44.2167C25.8907 41.2962 25.9851 38.2097 26.0796 35.8515C26.1269 34.6729 26.1741 33.6771 26.2095 32.9761C26.2166 32.8354 26.2233 32.7066 26.2293 32.5906Z" fill="#9254DE" stroke="#222222"/>
</svg>
