<svg width="48" height="48" viewBox="0 0 48 48" fill="none" xmlns="http://www.w3.org/2000/svg">
<path d="M42.6029 19.1686C42.6029 20.033 41.9022 20.7337 41.0378 20.7337C40.1735 20.7337 39.4728 20.033 39.4728 19.1686C39.4728 18.3042 40.1735 17.6035 41.0378 17.6035C41.9022 17.6035 42.6029 18.3042 42.6029 19.1686Z" fill="#EFDBFF" stroke="#722ED1"/>
<path d="M33.5412 16.2172C33.5412 17.5703 32.4443 18.6673 31.0911 18.6673C29.7379 18.6673 28.641 17.5703 28.641 16.2172C28.641 14.864 29.7379 13.7671 31.0911 13.7671C32.4443 13.7671 33.5412 14.864 33.5412 16.2172Z" fill="#EFDBFF" stroke="#722ED1"/>
<path d="M38.3316 5.89999C38.3316 7.579 36.9705 8.94011 35.2915 8.94011C33.6125 8.94011 32.2513 7.579 32.2513 5.89999C32.2513 4.22097 33.6125 2.85986 35.2915 2.85986C36.9705 2.85986 38.3316 4.22097 38.3316 5.89999Z" fill="#EFDBFF" stroke="#722ED1"/>
<path d="M20.8429 28.9139L31.8305 42.5519C33.097 44.1804 31.9559 46.5556 29.8581 46.5556H4.00295C1.9052 46.5556 0.764148 44.1805 2.0306 42.5519L13.0183 28.914C13.2331 28.6474 13.3502 28.3153 13.3502 27.9729V13.9805C13.3502 13.7043 13.5741 13.4805 13.8502 13.4805H20.011C20.2871 13.4805 20.511 13.7043 20.511 13.9805V27.9728C20.511 28.3152 20.6281 28.6473 20.8429 28.9139L21.2323 28.6002L20.8429 28.9139Z" fill="#EFDBFF" stroke="#722ED1"/>
<path d="M13.6424 33.7093C13.7373 33.6023 13.8735 33.541 14.0165 33.541H20.4135C20.5565 33.541 20.6927 33.6023 20.7876 33.7093L28.0404 41.8877C28.3265 42.2103 28.0975 42.7194 27.6664 42.7194H6.76358C6.33243 42.7194 6.10342 42.2103 6.3895 41.8877L13.6424 33.7093Z" fill="#EFDBFF" stroke="#722ED1"/>
<path d="M12.6204 9.94043H21.2407C21.5169 9.94043 21.7407 10.1643 21.7407 10.4404V13.1606C21.7407 13.4367 21.5169 13.6606 21.2407 13.6606H12.6204C12.3442 13.6606 12.1204 13.4367 12.1204 13.1606V10.4404C12.1204 10.1643 12.3442 9.94043 12.6204 9.94043Z" fill="#EFDBFF" stroke="#722ED1"/>
<path d="M18.2006 4.71995C18.2006 5.74724 17.3678 6.58003 16.3405 6.58003C15.3133 6.58003 14.4805 5.74724 14.4805 4.71995C14.4805 3.69265 15.3133 2.85986 16.3405 2.85986C17.3678 2.85986 18.2006 3.69265 18.2006 4.71995Z" fill="#EFDBFF" stroke="#722ED1"/>
<path d="M12.3005 2.36008C12.3005 3.38738 11.4677 4.22016 10.4404 4.22016C9.41311 4.22016 8.58032 3.38738 8.58032 2.36008C8.58032 1.33279 9.41311 0.5 10.4404 0.5C11.4677 0.5 12.3005 1.33279 12.3005 2.36008Z" fill="#EFDBFF" stroke="#722ED1"/>
<path d="M46.5162 32.6207V33.0685L46.5216 33.0691V44.2169C46.5216 46.0657 45.009 47.4998 43.1887 47.4998H29.0236C27.1342 47.4998 25.6907 45.9975 25.6907 44.2169C25.6907 41.2966 25.7851 38.463 25.8797 35.6365L25.8815 35.5846C25.9755 32.778 26.0693 29.9777 26.0693 27.1213C26.0693 26.8391 25.9649 26.567 25.7761 26.3573L23.9585 24.3377C23.8762 24.2463 23.9411 24.1006 24.0641 24.1006H46.3742C46.4526 24.1006 46.5162 24.1642 46.5162 24.2427V32.6207Z" fill="#EFDBFF" stroke="#722ED1"/>
<path d="M26.0294 32.5905C26.111 32.6258 26.1996 32.6638 26.2946 32.7044C26.8854 32.9566 27.7285 33.3064 28.7401 33.6976C30.7608 34.4793 33.4636 35.4304 36.1731 36.0986C38.8661 36.7628 41.6324 37.165 43.7509 36.7964C44.8169 36.611 45.7662 36.2226 46.4509 35.5275C46.4749 35.5032 46.4985 35.4785 46.5216 35.4536V44.2165C46.5216 46.0654 45.0091 47.4994 43.1887 47.4994H29.0237C27.1343 47.4994 25.6908 45.9972 25.6908 44.2165C25.6908 41.296 25.7852 38.2096 25.8797 35.8514C25.9269 34.6727 25.9741 33.6769 26.0096 32.976C26.0167 32.8353 26.0233 32.7065 26.0294 32.5905Z" fill="#EFDBFF" stroke="#722ED1"/>
</svg>
