<svg width="47" height="48" viewBox="0 0 47 48" fill="none" xmlns="http://www.w3.org/2000/svg">
<path d="M41.6029 19.1686C41.6029 20.033 40.9022 20.7337 40.0378 20.7337C39.1735 20.7337 38.4728 20.033 38.4728 19.1686C38.4728 18.3042 39.1735 17.6035 40.0378 17.6035C40.9022 17.6035 41.6029 18.3042 41.6029 19.1686Z" fill="#EFDBFF" stroke="#722ED1"/>
<path d="M32.5412 16.2173C32.5412 17.5705 31.4443 18.6674 30.0911 18.6674C28.7379 18.6674 27.641 17.5705 27.641 16.2173C27.641 14.8642 28.7379 13.7672 30.0911 13.7672C31.4443 13.7672 32.5412 14.8642 32.5412 16.2173Z" fill="#EFDBFF" stroke="#722ED1"/>
<path d="M37.3316 5.90023C37.3316 7.57924 35.9705 8.94035 34.2915 8.94035C32.6125 8.94035 31.2513 7.57924 31.2513 5.90023C31.2513 4.22122 32.6125 2.86011 34.2915 2.86011C35.9705 2.86011 37.3316 4.22122 37.3316 5.90023Z" fill="#EFDBFF" stroke="#722ED1"/>
<path d="M19.8429 28.9139L30.8305 42.5519C32.097 44.1804 30.9559 46.5556 28.8581 46.5556H3.00295C0.905195 46.5556 -0.235852 44.1805 1.0306 42.5519L12.0183 28.914C12.2331 28.6474 12.3502 28.3153 12.3502 27.9729V13.9805C12.3502 13.7043 12.5741 13.4805 12.8502 13.4805H19.011C19.2871 13.4805 19.511 13.7043 19.511 13.9805V27.9728C19.511 28.3152 19.6281 28.6473 19.8429 28.9139L20.2323 28.6002L19.8429 28.9139Z" fill="#EFDBFF" stroke="#722ED1"/>
<path d="M12.6424 33.7094C12.7373 33.6024 12.8735 33.5411 13.0165 33.5411H19.4135C19.5565 33.5411 19.6927 33.6024 19.7876 33.7094L27.0404 41.8878C27.3265 42.2104 27.0975 42.7196 26.6664 42.7196H5.76358C5.33243 42.7196 5.10342 42.2104 5.3895 41.8878L12.6424 33.7094Z" fill="#EFDBFF" stroke="#722ED1"/>
<path d="M11.6203 9.94031H20.2407C20.5168 9.94031 20.7407 10.1642 20.7407 10.4403V13.1605C20.7407 13.4366 20.5168 13.6605 20.2407 13.6605H11.6203C11.3442 13.6605 11.1203 13.4366 11.1203 13.1605V10.4403C11.1203 10.1642 11.3442 9.94031 11.6203 9.94031Z" fill="#EFDBFF" stroke="#722ED1"/>
<path d="M17.2006 4.72019C17.2006 5.74748 16.3678 6.58027 15.3405 6.58027C14.3132 6.58027 13.4804 5.74748 13.4804 4.72019C13.4804 3.69289 14.3132 2.86011 15.3405 2.86011C16.3678 2.86011 17.2006 3.69289 17.2006 4.72019Z" fill="#EFDBFF" stroke="#722ED1"/>
<path d="M11.3004 2.36008C11.3004 3.38738 10.4676 4.22016 9.44034 4.22016C8.41305 4.22016 7.58026 3.38738 7.58026 2.36008C7.58026 1.33279 8.41305 0.5 9.44034 0.5C10.4676 0.5 11.3004 1.33279 11.3004 2.36008Z" fill="#EFDBFF" stroke="#722ED1"/>
<path d="M45.5162 32.621V33.0687L45.5216 33.0693V44.2171C45.5216 46.066 44.009 47.5 42.1887 47.5H28.0236C26.1342 47.5 24.6907 45.9978 24.6907 44.2171C24.6907 41.2968 24.7851 38.4632 24.8797 35.6368L24.8815 35.5848C24.9755 32.7783 25.0693 29.9779 25.0693 27.1215C25.0693 26.8394 24.9649 26.5672 24.7761 26.3575L22.9585 24.338C22.8762 24.2465 22.9411 24.1008 23.0641 24.1008H45.3742C45.4526 24.1008 45.5162 24.1644 45.5162 24.2429V32.621Z" fill="#EFDBFF" stroke="#722ED1"/>
<path d="M25.0293 32.5906C25.111 32.6259 25.1995 32.664 25.2945 32.7045C25.8853 32.9567 26.7285 33.3065 27.74 33.6977C29.7608 34.4794 32.4635 35.4305 35.173 36.0987C37.8661 36.7629 40.6323 37.1651 42.7508 36.7966C43.8168 36.6111 44.7661 36.2227 45.4509 35.5276C45.4748 35.5033 45.4984 35.4786 45.5216 35.4537V44.2167C45.5216 46.0655 44.009 47.4996 42.1887 47.4996H28.0236C26.1342 47.4996 24.6907 45.9973 24.6907 44.2167C24.6907 41.2962 24.7851 38.2097 24.8796 35.8515C24.9268 34.6729 24.9741 33.6771 25.0095 32.9761C25.0166 32.8354 25.0232 32.7066 25.0293 32.5906Z" fill="#EFDBFF" stroke="#722ED1"/>
</svg>
