<svg width="44" height="35" viewBox="0 0 44 35" fill="none" xmlns="http://www.w3.org/2000/svg">
<path d="M11.5406 22.5612C11.5824 22.5612 11.6374 22.5799 11.691 22.6413C11.7452 22.7034 11.787 22.7997 11.787 22.9159V34.0195C11.787 34.1362 11.7451 34.2324 11.6911 34.2942C11.6377 34.3554 11.5828 34.3742 11.5406 34.3742H1.09948C1.05731 34.3742 1.00237 34.3554 0.949009 34.2942C0.894993 34.2324 0.853149 34.1362 0.853149 34.0195V22.9159C0.853149 22.7997 0.894896 22.7034 0.949122 22.6413C1.0027 22.5799 1.05767 22.5612 1.09948 22.5612H4.07733H4.07974H4.08216H4.08458H4.087H4.08943H4.09187H4.09431H4.09676H4.09922H4.10168H4.10415H4.10662H4.1091H4.11158H4.11407H4.11657H4.11907H4.12157H4.12408H4.1266H4.12912H4.13165H4.13419H4.13673H4.13927H4.14182H4.14438H4.14694H4.1495H4.15207H4.15465H4.15723H4.15982H4.16241H4.16501H4.16761H4.17022H4.17283H4.17545H4.17807H4.1807H4.18334H4.18597H4.18862H4.19126H4.19392H4.19658H4.19924H4.20191H4.20458H4.20726H4.20994H4.21262H4.21532H4.21801H4.22071H4.22342H4.22613H4.22884H4.23156H4.23429H4.23702H4.23975H4.24249H4.24523H4.24798H4.25073H4.25348H4.25624H4.25901H4.26178H4.26455H4.26733H4.27011H4.27289H4.27568H4.27848H4.28128H4.28408H4.28689H4.2897H4.29251H4.29533H4.29815H4.30098H4.30381H4.30665H4.30948H4.31233H4.31517H4.31802H4.32088H4.32374H4.3266H4.32947H4.33234H4.33521H4.33809H4.34097H4.34385H4.34674H4.34963H4.35253H4.35542H4.35833H4.36123H4.36414H4.36706H4.36997H4.37289H4.37581H4.37874H4.38167H4.3846H4.38754H4.39048H4.39342H4.39637H4.39932H4.40227H4.40523H4.40819H4.41115H4.41412H4.41709H4.42006H4.42303H4.42601H4.42899H4.43197H4.43496H4.43795H4.44094H4.44394H4.44693H4.44994H4.45294H4.45595H4.45896H4.46197H4.46498H4.468H4.47102H4.47404H4.47707H4.48009H4.48313H4.48616H4.48919H4.49223H4.49527H4.49832H4.50136H4.50441H4.50746H4.51051H4.51357H4.51662H4.51968H4.52274H4.52581H4.52887H4.53194H4.53501H4.53809H4.54116H4.54424H4.54732H4.5504H4.55348H4.55657H4.55965H4.56274H4.56583H4.56893H4.57202H4.57512H4.57822H4.58132H4.58442H4.58752H4.59063H4.59373H4.59684H4.59995H4.60307H4.60618H4.6093H4.61241H4.61553H4.61865H4.62177H4.6249H4.62802H4.63115H4.63428H4.63741H4.64054H4.64367H4.6468H4.64994H4.65307H4.65621H4.65935H4.66249H4.66563H4.66877H4.67191H4.67506H4.6782H4.68135H4.68449H4.68764H4.69079H4.69394H4.69709H4.70025H4.7034H4.70655H4.70971H4.71286H4.71602H4.71918H4.72234H4.72549H4.72865H4.73181H4.73498H4.73814H4.7413H4.74446H4.74763H4.75079H4.75395H4.75712H4.76028H4.76345H4.76662H4.76978H4.77295H4.77612H4.77929H4.78246H4.78562H4.78879H4.79196H4.79513H4.7983H4.80147H4.80464H4.80781H4.81098H4.81415H4.81732H4.82049H4.82366H4.82683H4.83H4.83317H4.83634H4.83951H4.84268H4.84585H4.84902H4.85219H4.85536H4.85853H4.8617H4.86487H4.86804H4.87121H4.87437H4.87754H4.88071H4.88387H4.88704H4.89021H4.89337H4.89654H4.8997H4.90286H4.90603H4.90919H4.91235H4.91551H4.91867H4.92183H4.92499H4.92815H4.9313H4.93446H4.93762H4.94077H4.94393H4.94708H4.95023H4.95338H4.95653H4.95968H4.96283H4.96598H4.96912H4.97227H4.97541H4.97856H4.9817H4.98484H4.98798H4.99112H4.99425H4.99739H5.00052H5.00366H5.00679H5.00992H5.01305H5.01618H5.0193H5.02243H5.02555H5.02867H5.03179H5.03491H5.03803H5.04114H5.04426H5.04737H5.05048H5.05359H5.0567H5.0598H5.06291H5.06601H5.06911H5.07221H5.07531H5.0784H5.08149H5.08458H5.08767H5.09076H5.09385H5.09693H5.10001H5.10309H5.10616H5.10924H5.11231H5.11538H5.11845H5.12152H5.12458H5.12764H5.1307H5.13376H5.13681H5.13987H5.14292H5.14597H5.14901H5.15205H5.15509H5.15813H5.16117H5.1642H5.16723H5.17026H5.17328H5.17631H5.17933H5.18234H5.18536H5.18837H5.19138H5.19439H5.19739H5.20039H5.20339H5.20638H5.20938H5.21237H5.21535H5.21834H5.22132H5.22429H5.22727H5.23024H5.23321H5.23617H5.23914H5.2421H5.24505H5.248H5.25095H5.2539H5.25684H5.25978H5.26272H5.26565H5.26858H5.27151H5.27443H5.27735H5.28027H5.28318H5.28609H5.289H5.2919H5.2948H5.2977H5.30059H5.30347H5.30636H5.30924H5.31212H5.31499H5.31786H5.32073H5.32359H5.32645H5.3293H5.33215H5.335H5.33784H5.34068H5.34351H5.34635H5.34917H5.352H5.35481H5.35763H5.36044H5.36325H5.36605H5.36885H5.37164H5.37443H5.37722H5.38H5.38278H5.38555H5.38832H5.39108H5.39384H5.3966H5.39935H5.4021H5.40484H5.40758H5.41031H5.41304H5.41576H5.41848H5.4212H5.42391H5.42661H5.42931H5.43201H5.4347H5.43739H5.44007H5.44275H5.44542H5.44809H5.45075H5.45341H5.45606H5.45871H5.46135H5.46399H5.46662H5.46925H5.47188H5.47449H5.47711H5.47971H5.48232H5.48491H5.48751H5.49009H5.49268H5.49525H5.49782H5.50039H5.50295H5.50551H5.50806H5.5106H5.51314H5.51567H5.5182H5.52072H5.52324H5.52575H5.52826H5.53076H5.53326H5.53575H5.53823H5.54071H5.54318H5.54565H5.54811H5.55056H5.55301H5.55545H5.55789H5.56032H5.56275H5.56517H5.56758H5.56999H7.06265H7.06506H7.06747H7.06989H7.07232H7.07475H7.07719H7.07963H7.08208H7.08454H7.087H7.08947H7.09194H7.09442H7.0969H7.09939H7.10188H7.10438H7.10689H7.1094H7.11192H7.11444H7.11697H7.1195H7.12204H7.12459H7.12714H7.12969H7.13226H7.13482H7.13739H7.13997H7.14255H7.14514H7.14773H7.15033H7.15293H7.15554H7.15815H7.16077H7.16339H7.16602H7.16865H7.17129H7.17394H7.17658H7.17924H7.18189H7.18456H7.18722H7.1899H7.19257H7.19526H7.19794H7.20063H7.20333H7.20603H7.20874H7.21145H7.21416H7.21688H7.21961H7.22234H7.22507H7.22781H7.23055H7.2333H7.23605H7.2388H7.24156H7.24433H7.2471H7.24987H7.25265H7.25543H7.25821H7.261H7.2638H7.26659H7.2694H7.2722H7.27501H7.27783H7.28065H7.28347H7.2863H7.28913H7.29197H7.2948H7.29765H7.30049H7.30334H7.3062H7.30906H7.31192H7.31478H7.31765H7.32053H7.3234H7.32629H7.32917H7.33206H7.33495H7.33784H7.34074H7.34365H7.34655H7.34946H7.35237H7.35529H7.35821H7.36113H7.36406H7.36699H7.36992H7.37286H7.3758H7.37874H7.38169H7.38464H7.38759H7.39055H7.39351H7.39647H7.39944H7.4024H7.40538H7.40835H7.41133H7.41431H7.41729H7.42028H7.42327H7.42626H7.42926H7.43225H7.43525H7.43826H7.44126H7.44427H7.44729H7.4503H7.45332H7.45634H7.45936H7.46239H7.46541H7.46844H7.47148H7.47451H7.47755H7.48059H7.48363H7.48668H7.48973H7.49278H7.49583H7.49888H7.50194H7.505H7.50806H7.51113H7.51419H7.51726H7.52033H7.5234H7.52648H7.52956H7.53264H7.53572H7.5388H7.54188H7.54497H7.54806H7.55115H7.55424H7.55734H7.56044H7.56353H7.56663H7.56974H7.57284H7.57595H7.57905H7.58216H7.58527H7.58839H7.5915H7.59462H7.59773H7.60085H7.60397H7.60709H7.61022H7.61334H7.61647H7.6196H7.62273H7.62586H7.62899H7.63212H7.63525H7.63839H7.64153H7.64467H7.64781H7.65095H7.65409H7.65723H7.66038H7.66352H7.66667H7.66981H7.67296H7.67611H7.67926H7.68241H7.68557H7.68872H7.69187H7.69503H7.69818H7.70134H7.7045H7.70765H7.71081H7.71397H7.71713H7.72029H7.72346H7.72662H7.72978H7.73294H7.73611H7.73927H7.74244H7.7456H7.74877H7.75194H7.7551H7.75827H7.76144H7.76461H7.76777H7.77094H7.77411H7.77728H7.78045H7.78362H7.78679H7.78996H7.79313H7.7963H7.79947H7.80264H7.80581H7.80898H7.81215H7.81532H7.81849H7.82166H7.82483H7.828H7.83117H7.83434H7.83751H7.84068H7.84385H7.84702H7.85019H7.85336H7.85652H7.85969H7.86286H7.86603H7.86919H7.87236H7.87552H7.87869H7.88185H7.88502H7.88818H7.89134H7.89451H7.89767H7.90083H7.90399H7.90715H7.91031H7.91347H7.91662H7.91978H7.92294H7.92609H7.92924H7.9324H7.93555H7.9387H7.94185H7.945H7.94815H7.9513H7.95444H7.95759H7.96073H7.96388H7.96702H7.97016H7.9733H7.97644H7.97957H7.98271H7.98584H7.98898H7.99211H7.99524H7.99837H8.0015H8.00462H8.00775H8.01087H8.01399H8.01711H8.02023H8.02335H8.02646H8.02958H8.03269H8.0358H8.03891H8.04202H8.04512H8.04823H8.05133H8.05443H8.05753H8.06062H8.06372H8.06681H8.0699H8.07299H8.07608H8.07916H8.08225H8.08533H8.08841H8.09148H8.09456H8.09763H8.1007H8.10377H8.10684H8.1099H8.11296H8.11602H8.11908H8.12213H8.12519H8.12824H8.13128H8.13433H8.13737H8.14041H8.14345H8.14649H8.14952H8.15255H8.15558H8.1586H8.16163H8.16465H8.16766H8.17068H8.17369H8.1767H8.17971H8.18271H8.18571H8.18871H8.1917H8.19469H8.19768H8.20067H8.20365H8.20664H8.20961H8.21259H8.21556H8.21853H8.22149H8.22446H8.22741H8.23037H8.23332H8.23627H8.23922H8.24216H8.2451H8.24804H8.25097H8.2539H8.25683H8.25975H8.26267H8.26559H8.2685H8.27141H8.27432H8.27722H8.28012H8.28301H8.28591H8.28879H8.29168H8.29456H8.29744H8.30031H8.30318H8.30604H8.30891H8.31177H8.31462H8.31747H8.32032H8.32316H8.326H8.32883H8.33166H8.33449H8.33731H8.34013H8.34295H8.34576H8.34857H8.35137H8.35417H8.35696H8.35975H8.36254H8.36532H8.3681H8.37087H8.37364H8.3764H8.37916H8.38192H8.38467H8.38741H8.39016H8.39289H8.39563H8.39836H8.40108H8.4038H8.40652H8.40923H8.41193H8.41463H8.41733H8.42002H8.42271H8.42539H8.42807H8.43074H8.43341H8.43607H8.43873H8.44138H8.44403H8.44667H8.44931H8.45194H8.45457H8.45719H8.45981H8.46243H8.46503H8.46764H8.47023H8.47283H8.47541H8.47799H8.48057H8.48314H8.48571H8.48827H8.49082H8.49337H8.49592H8.49846H8.50099H8.50352H8.50604H8.50856H8.51107H8.51358H8.51608H8.51857H8.52106H8.52355H8.52603H8.5285H8.53096H8.53343H8.53588H8.53833H8.54077H8.54321H8.54564H8.54807H8.55049H8.5529H8.55531H11.5406Z" fill="white" stroke="#D4380D"/>
<path d="M43.1505 1.38281C43.1848 1.38281 43.2362 1.39836 43.2895 1.46094C43.3435 1.52428 43.3863 1.62425 43.3863 1.74615V12.9618C43.3863 13.0843 43.3434 13.1841 43.2896 13.2472C43.2366 13.3095 43.1852 13.3251 43.1505 13.3251H32.8564C32.8218 13.3251 32.7704 13.3095 32.7173 13.2472C32.6636 13.1841 32.6206 13.0843 32.6206 12.9618V1.74615C32.6206 1.62425 32.6635 1.52428 32.7174 1.46094C32.7707 1.39836 32.8222 1.38281 32.8564 1.38281H35.7923H35.7947H35.7971H35.7995H35.8019H35.8043H35.8067H35.8091H35.8115H35.8139H35.8163H35.8188H35.8212H35.8237H35.8261H35.8286H35.831H35.8335H35.836H35.8384H35.8409H35.8434H35.8459H35.8484H35.8509H35.8534H35.8559H35.8584H35.861H35.8635H35.866H35.8686H35.8711H35.8737H35.8762H35.8788H35.8813H35.8839H35.8865H35.8891H35.8917H35.8942H35.8968H35.8994H35.9021H35.9047H35.9073H35.9099H35.9125H35.9152H35.9178H35.9204H35.9231H35.9257H35.9284H35.931H35.9337H35.9364H35.939H35.9417H35.9444H35.9471H35.9498H35.9525H35.9552H35.9579H35.9606H35.9633H35.966H35.9687H35.9715H35.9742H35.9769H35.9797H35.9824H35.9851H35.9879H35.9906H35.9934H35.9962H35.9989H36.0017H36.0045H36.0073H36.01H36.0128H36.0156H36.0184H36.0212H36.024H36.0268H36.0296H36.0325H36.0353H36.0381H36.0409H36.0437H36.0466H36.0494H36.0523H36.0551H36.0579H36.0608H36.0637H36.0665H36.0694H36.0722H36.0751H36.078H36.0809H36.0837H36.0866H36.0895H36.0924H36.0953H36.0982H36.1011H36.104H36.1069H36.1098H36.1127H36.1156H36.1185H36.1215H36.1244H36.1273H36.1302H36.1332H36.1361H36.139H36.142H36.1449H36.1479H36.1508H36.1538H36.1567H36.1597H36.1627H36.1656H36.1686H36.1716H36.1745H36.1775H36.1805H36.1835H36.1864H36.1894H36.1924H36.1954H36.1984H36.2014H36.2044H36.2074H36.2104H36.2134H36.2164H36.2194H36.2224H36.2254H36.2285H36.2315H36.2345H36.2375H36.2405H36.2436H36.2466H36.2496H36.2527H36.2557H36.2587H36.2618H36.2648H36.2679H36.2709H36.274H36.277H36.2801H36.2831H36.2862H36.2892H36.2923H36.2953H36.2984H36.3015H36.3045H36.3076H36.3107H36.3137H36.3168H36.3199H36.323H36.326H36.3291H36.3322H36.3353H36.3384H36.3414H36.3445H36.3476H36.3507H36.3538H36.3569H36.36H36.3631H36.3662H36.3692H36.3723H36.3754H36.3785H36.3816H36.3847H36.3878H36.3909H36.3941H36.3972H36.4003H36.4034H36.4065H36.4096H36.4127H36.4158H36.4189H36.422H36.4251H36.4283H36.4314H36.4345H36.4376H36.4407H36.4438H36.447H36.4501H36.4532H36.4563H36.4594H36.4625H36.4657H36.4688H36.4719H36.475H36.4782H36.4813H36.4844H36.4875H36.4907H36.4938H36.4969H36.5H36.5031H36.5063H36.5094H36.5125H36.5157H36.5188H36.5219H36.525H36.5282H36.5313H36.5344H36.5375H36.5407H36.5438H36.5469H36.55H36.5532H36.5563H36.5594H36.5625H36.5657H36.5688H36.5719H36.575H36.5782H36.5813H36.5844H36.5875H36.5906H36.5938H36.5969H36.6H36.6031H36.6062H36.6094H36.6125H36.6156H36.6187H36.6218H36.6249H36.6281H36.6312H36.6343H36.6374H36.6405H36.6436H36.6467H36.6498H36.6529H36.656H36.6592H36.6623H36.6654H36.6685H36.6716H36.6747H36.6778H36.6809H36.684H36.6871H36.6902H36.6932H36.6963H36.6994H36.7025H36.7056H36.7087H36.7118H36.7149H36.718H36.721H36.7241H36.7272H36.7303H36.7334H36.7364H36.7395H36.7426H36.7456H36.7487H36.7518H36.7548H36.7579H36.761H36.764H36.7671H36.7701H36.7732H36.7763H36.7793H36.7824H36.7854H36.7884H36.7915H36.7945H36.7976H36.8006H36.8036H36.8067H36.8097H36.8127H36.8158H36.8188H36.8218H36.8248H36.8279H36.8309H36.8339H36.8369H36.8399H36.8429H36.8459H36.8489H36.8519H36.8549H36.8579H36.8609H36.8639H36.8669H36.8699H36.8729H36.8758H36.8788H36.8818H36.8848H36.8877H36.8907H36.8937H36.8966H36.8996H36.9025H36.9055H36.9084H36.9114H36.9143H36.9173H36.9202H36.9231H36.9261H36.929H36.9319H36.9349H36.9378H36.9407H36.9436H36.9465H36.9494H36.9523H36.9552H36.9581H36.961H36.9639H36.9668H36.9697H36.9726H36.9755H36.9783H36.9812H36.9841H36.9869H36.9898H36.9927H36.9955H36.9984H37.0012H37.0041H37.0069H37.0097H37.0126H37.0154H37.0182H37.021H37.0239H37.0267H37.0295H37.0323H37.0351H37.0379H37.0407H37.0435H37.0463H37.049H37.0518H37.0546H37.0574H37.0601H37.0629H37.0657H37.0684H37.0712H37.0739H37.0767H37.0794H37.0821H37.0849H37.0876H37.0903H37.093H37.0957H37.0984H37.1011H37.1038H37.1065H37.1092H37.1119H37.1146H37.1173H37.1199H37.1226H37.1253H37.1279H37.1306H37.1332H37.1359H37.1385H37.1412H37.1438H37.1464H37.149H37.1516H37.1543H37.1569H37.1595H37.1621H37.1647H37.1672H37.1698H37.1724H37.175H37.1775H37.1801H37.1826H37.1852H37.1877H37.1903H37.1928H37.1953H37.1979H37.2004H37.2029H37.2054H37.2079H37.2104H37.2129H37.2154H37.2179H37.2204H37.2228H37.2253H37.2278H37.2302H37.2327H37.2351H37.2375H37.24H37.2424H37.2448H37.2472H37.2496H37.252H37.2544H37.2568H37.2592H37.2616H37.264H38.7356H38.738H38.7404H38.7427H38.7451H38.7475H38.7499H38.7523H38.7548H38.7572H38.7596H38.762H38.7645H38.7669H38.7694H38.7718H38.7743H38.7768H38.7792H38.7817H38.7842H38.7867H38.7892H38.7917H38.7942H38.7967H38.7992H38.8017H38.8042H38.8068H38.8093H38.8118H38.8144H38.8169H38.8195H38.822H38.8246H38.8272H38.8298H38.8323H38.8349H38.8375H38.8401H38.8427H38.8453H38.8479H38.8505H38.8532H38.8558H38.8584H38.8611H38.8637H38.8663H38.869H38.8716H38.8743H38.877H38.8796H38.8823H38.885H38.8877H38.8904H38.893H38.8957H38.8984H38.9011H38.9038H38.9066H38.9093H38.912H38.9147H38.9175H38.9202H38.9229H38.9257H38.9284H38.9312H38.9339H38.9367H38.9394H38.9422H38.945H38.9478H38.9505H38.9533H38.9561H38.9589H38.9617H38.9645H38.9673H38.9701H38.9729H38.9757H38.9785H38.9814H38.9842H38.987H38.9899H38.9927H38.9955H38.9984H39.0012H39.0041H39.0069H39.0098H39.0126H39.0155H39.0184H39.0212H39.0241H39.027H39.0299H39.0328H39.0357H39.0386H39.0414H39.0443H39.0472H39.0502H39.0531H39.056H39.0589H39.0618H39.0647H39.0676H39.0706H39.0735H39.0764H39.0794H39.0823H39.0853H39.0882H39.0911H39.0941H39.097H39.1H39.103H39.1059H39.1089H39.1119H39.1148H39.1178H39.1208H39.1237H39.1267H39.1297H39.1327H39.1357H39.1387H39.1417H39.1447H39.1477H39.1507H39.1537H39.1567H39.1597H39.1627H39.1657H39.1687H39.1717H39.1747H39.1778H39.1808H39.1838H39.1868H39.1899H39.1929H39.1959H39.199H39.202H39.205H39.2081H39.2111H39.2142H39.2172H39.2203H39.2233H39.2264H39.2294H39.2325H39.2356H39.2386H39.2417H39.2447H39.2478H39.2509H39.2539H39.257H39.2601H39.2632H39.2662H39.2693H39.2724H39.2755H39.2785H39.2816H39.2847H39.2878H39.2909H39.294H39.2971H39.3001H39.3032H39.3063H39.3094H39.3125H39.3156H39.3187H39.3218H39.3249H39.328H39.3311H39.3342H39.3373H39.3404H39.3435H39.3466H39.3497H39.3529H39.356H39.3591H39.3622H39.3653H39.3684H39.3715H39.3746H39.3778H39.3809H39.384H39.3871H39.3902H39.3933H39.3965H39.3996H39.4027H39.4058H39.4089H39.4121H39.4152H39.4183H39.4214H39.4246H39.4277H39.4308H39.4339H39.437H39.4402H39.4433H39.4464H39.4495H39.4527H39.4558H39.4589H39.462H39.4652H39.4683H39.4714H39.4746H39.4777H39.4808H39.4839H39.4871H39.4902H39.4933H39.4964H39.4996H39.5027H39.5058H39.5089H39.5121H39.5152H39.5183H39.5214H39.5245H39.5277H39.5308H39.5339H39.537H39.5402H39.5433H39.5464H39.5495H39.5526H39.5557H39.5589H39.562H39.5651H39.5682H39.5713H39.5744H39.5776H39.5807H39.5838H39.5869H39.59H39.5931H39.5962H39.5993H39.6024H39.6055H39.6086H39.6117H39.6148H39.6179H39.621H39.6241H39.6272H39.6303H39.6334H39.6365H39.6396H39.6427H39.6458H39.6489H39.652H39.6551H39.6581H39.6612H39.6643H39.6674H39.6705H39.6735H39.6766H39.6797H39.6828H39.6858H39.6889H39.692H39.695H39.6981H39.7012H39.7042H39.7073H39.7104H39.7134H39.7165H39.7195H39.7226H39.7256H39.7287H39.7317H39.7348H39.7378H39.7408H39.7439H39.7469H39.7499H39.753H39.756H39.759H39.7621H39.7651H39.7681H39.7711H39.7741H39.7772H39.7802H39.7832H39.7862H39.7892H39.7922H39.7952H39.7982H39.8012H39.8042H39.8072H39.8102H39.8131H39.8161H39.8191H39.8221H39.8251H39.828H39.831H39.834H39.8369H39.8399H39.8428H39.8458H39.8488H39.8517H39.8547H39.8576H39.8605H39.8635H39.8664H39.8693H39.8723H39.8752H39.8781H39.881H39.884H39.8869H39.8898H39.8927H39.8956H39.8985H39.9014H39.9043H39.9072H39.9101H39.913H39.9158H39.9187H39.9216H39.9245H39.9273H39.9302H39.9331H39.9359H39.9388H39.9416H39.9445H39.9473H39.9502H39.953H39.9558H39.9587H39.9615H39.9643H39.9671H39.9699H39.9728H39.9756H39.9784H39.9812H39.984H39.9867H39.9895H39.9923H39.9951H39.9979H40.0006H40.0034H40.0062H40.0089H40.0117H40.0144H40.0172H40.0199H40.0227H40.0254H40.0281H40.0309H40.0336H40.0363H40.039H40.0417H40.0444H40.0471H40.0498H40.0525H40.0552H40.0579H40.0605H40.0632H40.0659H40.0685H40.0712H40.0739H40.0765H40.0792H40.0818H40.0844H40.0871H40.0897H40.0923H40.0949H40.0975H40.1001H40.1027H40.1053H40.1079H40.1105H40.1131H40.1157H40.1182H40.1208H40.1234H40.1259H40.1285H40.131H40.1336H40.1361H40.1386H40.1411H40.1437H40.1462H40.1487H40.1512H40.1537H40.1562H40.1587H40.1612H40.1636H40.1661H40.1686H40.171H40.1735H40.1759H40.1784H40.1808H40.1832H40.1857H40.1881H40.1905H40.1929H40.1953H40.1977H40.2001H40.2025H40.2049H40.2072H43.1505Z" fill="white" stroke="#D4380D"/>
<path d="M19.4396 1.38281H21.1309C21.1662 1.45761 21.1996 1.58484 21.1996 1.74615V12.9618C21.1996 13.1234 21.1662 13.2505 21.131 13.3251H15.0406C15.0054 13.2505 14.972 13.1234 14.972 12.9618V1.74615C14.972 1.58484 15.0054 1.45761 15.0408 1.38281H16.7275H16.729H16.7305H16.7319H16.7334H16.7349H16.7363H16.7378H16.7393H16.7408H16.7423H16.7438H16.7453H16.7468H16.7483H16.7498H16.7513H16.7528H16.7543H16.7559H16.7574H16.7589H16.7604H16.762H16.7635H16.765H16.7666H16.7681H16.7697H16.7712H16.7728H16.7744H16.7759H16.7775H16.7791H16.7806H16.7822H16.7838H16.7854H16.787H16.7885H16.7901H16.7917H16.7933H16.7949H16.7965H16.7981H16.7998H16.8014H16.803H16.8046H16.8062H16.8078H16.8095H16.8111H16.8127H16.8144H16.816H16.8177H16.8193H16.8209H16.8226H16.8242H16.8259H16.8276H16.8292H16.8309H16.8326H16.8342H16.8359H16.8376H16.8392H16.8409H16.8426H16.8443H16.846H16.8477H16.8494H16.8511H16.8527H16.8544H16.8562H16.8579H16.8596H16.8613H16.863H16.8647H16.8664H16.8681H16.8699H16.8716H16.8733H16.875H16.8768H16.8785H16.8802H16.882H16.8837H16.8855H16.8872H16.8889H16.8907H16.8925H16.8942H16.896H16.8977H16.8995H16.9012H16.903H16.9048H16.9065H16.9083H16.9101H16.9119H16.9136H16.9154H16.9172H16.919H16.9208H16.9225H16.9243H16.9261H16.9279H16.9297H16.9315H16.9333H16.9351H16.9369H16.9387H16.9405H16.9423H16.9441H16.9459H16.9478H16.9496H16.9514H16.9532H16.955H16.9568H16.9587H16.9605H16.9623H16.9641H16.966H16.9678H16.9696H16.9715H16.9733H16.9751H16.977H16.9788H16.9807H16.9825H16.9843H16.9862H16.988H16.9899H16.9917H16.9936H16.9954H16.9973H16.9991H17.001H17.0029H17.0047H17.0066H17.0084H17.0103H17.0122H17.014H17.0159H17.0178H17.0196H17.0215H17.0234H17.0253H17.0271H17.029H17.0309H17.0328H17.0346H17.0365H17.0384H17.0403H17.0422H17.0441H17.0459H17.0478H17.0497H17.0516H17.0535H17.0554H17.0573H17.0592H17.0611H17.0629H17.0648H17.0667H17.0686H17.0705H17.0724H17.0743H17.0762H17.0781H17.08H17.0819H17.0838H17.0857H17.0876H17.0895H17.0914H17.0933H17.0953H17.0972H17.0991H17.101H17.1029H17.1048H17.1067H17.1086H17.1105H17.1124H17.1143H17.1163H17.1182H17.1201H17.122H17.1239H17.1258H17.1277H17.1297H17.1316H17.1335H17.1354H17.1373H17.1392H17.1412H17.1431H17.145H17.1469H17.1488H17.1507H17.1527H17.1546H17.1565H17.1584H17.1603H17.1623H17.1642H17.1661H17.168H17.1699H17.1719H17.1738H17.1757H17.1776H17.1795H17.1815H17.1834H17.1853H17.1872H17.1891H17.1911H17.193H17.1949H17.1968H17.1987H17.2007H17.2026H17.2045H17.2064H17.2083H17.2103H17.2122H17.2141H17.216H17.2179H17.2198H17.2218H17.2237H17.2256H17.2275H17.2294H17.2313H17.2333H17.2352H17.2371H17.239H17.2409H17.2428H17.2447H17.2466H17.2486H17.2505H17.2524H17.2543H17.2562H17.2581H17.26H17.2619H17.2638H17.2657H17.2676H17.2695H17.2714H17.2733H17.2753H17.2772H17.2791H17.281H17.2829H17.2848H17.2867H17.2886H17.2904H17.2923H17.2942H17.2961H17.298H17.2999H17.3018H17.3037H17.3056H17.3075H17.3094H17.3113H17.3131H17.315H17.3169H17.3188H17.3207H17.3226H17.3244H17.3263H17.3282H17.3301H17.3319H17.3338H17.3357H17.3376H17.3394H17.3413H17.3432H17.345H17.3469H17.3488H17.3506H17.3525H17.3544H17.3562H17.3581H17.3599H17.3618H17.3636H17.3655H17.3673H17.3692H17.371H17.3729H17.3747H17.3766H17.3784H17.3803H17.3821H17.3839H17.3858H17.3876H17.3895H17.3913H17.3931H17.3949H17.3968H17.3986H17.4004H17.4022H17.4041H17.4059H17.4077H17.4095H17.4113H17.4131H17.415H17.4168H17.4186H17.4204H17.4222H17.424H17.4258H17.4276H17.4294H17.4312H17.433H17.4347H17.4365H17.4383H17.4401H17.4419H17.4437H17.4454H17.4472H17.449H17.4508H17.4525H17.4543H17.4561H17.4578H17.4596H17.4614H17.4631H17.4649H17.4666H17.4684H17.4701H17.4719H17.4736H17.4754H17.4771H17.4788H17.4806H17.4823H17.484H17.4858H17.4875H17.4892H17.4909H17.4927H17.4944H17.4961H17.4978H17.4995H17.5012H17.5029H17.5046H17.5063H17.508H17.5097H17.5114H17.5131H17.5148H17.5165H17.5182H17.5198H17.5215H17.5232H17.5249H17.5265H17.5282H17.5299H17.5315H17.5332H17.5348H17.5365H17.5381H17.5398H17.5414H17.5431H17.5447H17.5463H17.548H17.5496H17.5512H17.5529H17.5545H17.5561H17.5577H17.5593H17.5609H17.5625H17.5641H17.5657H17.5673H17.5689H17.5705H17.5721H17.5737H17.5753H17.5769H17.5784H17.58H17.5816H17.5832H17.5847H17.5863H17.5878H17.5894H17.5909H17.5925H17.594H17.5956H17.5971H17.5986H17.6002H17.6017H17.6032H17.6048H17.6063H17.6078H17.6093H17.6108H17.6123H17.6138H17.6153H17.6168H17.6183H17.6198H17.6213H17.6227H17.6242H17.6257H17.6272H17.6286H17.6301H17.6315H18.5355H18.537H18.5385H18.5399H18.5414H18.5429H18.5444H18.5458H18.5473H18.5488H18.5503H18.5518H18.5533H18.5548H18.5563H18.5578H18.5593H18.5608H18.5623H18.5639H18.5654H18.5669H18.5684H18.57H18.5715H18.5731H18.5746H18.5762H18.5777H18.5793H18.5808H18.5824H18.5839H18.5855H18.5871H18.5886H18.5902H18.5918H18.5934H18.595H18.5966H18.5982H18.5997H18.6013H18.6029H18.6045H18.6062H18.6078H18.6094H18.611H18.6126H18.6142H18.6159H18.6175H18.6191H18.6207H18.6224H18.624H18.6257H18.6273H18.629H18.6306H18.6323H18.6339H18.6356H18.6372H18.6389H18.6406H18.6422H18.6439H18.6456H18.6473H18.6489H18.6506H18.6523H18.654H18.6557H18.6574H18.6591H18.6608H18.6625H18.6642H18.6659H18.6676H18.6693H18.671H18.6727H18.6744H18.6761H18.6779H18.6796H18.6813H18.683H18.6848H18.6865H18.6882H18.69H18.6917H18.6935H18.6952H18.697H18.6987H18.7005H18.7022H18.704H18.7057H18.7075H18.7092H18.711H18.7128H18.7145H18.7163H18.7181H18.7199H18.7216H18.7234H18.7252H18.727H18.7288H18.7306H18.7323H18.7341H18.7359H18.7377H18.7395H18.7413H18.7431H18.7449H18.7467H18.7485H18.7503H18.7521H18.7539H18.7558H18.7576H18.7594H18.7612H18.763H18.7648H18.7667H18.7685H18.7703H18.7721H18.774H18.7758H18.7776H18.7795H18.7813H18.7831H18.785H18.7868H18.7887H18.7905H18.7924H18.7942H18.796H18.7979H18.7997H18.8016H18.8034H18.8053H18.8072H18.809H18.8109H18.8127H18.8146H18.8165H18.8183H18.8202H18.8221H18.8239H18.8258H18.8277H18.8295H18.8314H18.8333H18.8351H18.837H18.8389H18.8408H18.8427H18.8445H18.8464H18.8483H18.8502H18.8521H18.854H18.8558H18.8577H18.8596H18.8615H18.8634H18.8653H18.8672H18.8691H18.871H18.8729H18.8747H18.8766H18.8785H18.8804H18.8823H18.8842H18.8861H18.888H18.8899H18.8918H18.8937H18.8956H18.8975H18.8995H18.9014H18.9033H18.9052H18.9071H18.909H18.9109H18.9128H18.9147H18.9166H18.9185H18.9204H18.9224H18.9243H18.9262H18.9281H18.93H18.9319H18.9338H18.9358H18.9377H18.9396H18.9415H18.9434H18.9453H18.9472H18.9492H18.9511H18.953H18.9549H18.9568H18.9588H18.9607H18.9626H18.9645H18.9664H18.9684H18.9703H18.9722H18.9741H18.976H18.978H18.9799H18.9818H18.9837H18.9856H18.9876H18.9895H18.9914H18.9933H18.9952H18.9972H18.9991H19.001H19.0029H19.0048H19.0067H19.0087H19.0106H19.0125H19.0144H19.0163H19.0183H19.0202H19.0221H19.024H19.0259H19.0279H19.0298H19.0317H19.0336H19.0355H19.0374H19.0393H19.0413H19.0432H19.0451H19.047H19.0489H19.0508H19.0527H19.0547H19.0566H19.0585H19.0604H19.0623H19.0642H19.0661H19.068H19.0699H19.0718H19.0737H19.0756H19.0776H19.0795H19.0814H19.0833H19.0852H19.0871H19.089H19.0909H19.0928H19.0947H19.0966H19.0985H19.1004H19.1022H19.1041H19.106H19.1079H19.1098H19.1117H19.1136H19.1155H19.1174H19.1193H19.1212H19.123H19.1249H19.1268H19.1287H19.1306H19.1324H19.1343H19.1362H19.1381H19.14H19.1418H19.1437H19.1456H19.1474H19.1493H19.1512H19.153H19.1549H19.1568H19.1586H19.1605H19.1624H19.1642H19.1661H19.1679H19.1698H19.1717H19.1735H19.1754H19.1772H19.1791H19.1809H19.1827H19.1846H19.1864H19.1883H19.1901H19.192H19.1938H19.1956H19.1975H19.1993H19.2011H19.203H19.2048H19.2066H19.2084H19.2103H19.2121H19.2139H19.2157H19.2175H19.2193H19.2212H19.223H19.2248H19.2266H19.2284H19.2302H19.232H19.2338H19.2356H19.2374H19.2392H19.241H19.2428H19.2445H19.2463H19.2481H19.2499H19.2517H19.2535H19.2552H19.257H19.2588H19.2606H19.2623H19.2641H19.2659H19.2676H19.2694H19.2711H19.2729H19.2746H19.2764H19.2781H19.2799H19.2816H19.2834H19.2851H19.2869H19.2886H19.2903H19.2921H19.2938H19.2955H19.2972H19.299H19.3007H19.3024H19.3041H19.3058H19.3075H19.3092H19.3109H19.3126H19.3143H19.316H19.3177H19.3194H19.3211H19.3228H19.3245H19.3262H19.3278H19.3295H19.3312H19.3329H19.3345H19.3362H19.3379H19.3395H19.3412H19.3428H19.3445H19.3461H19.3478H19.3494H19.3511H19.3527H19.3544H19.356H19.3576H19.3592H19.3609H19.3625H19.3641H19.3657H19.3673H19.3689H19.3706H19.3722H19.3738H19.3754H19.3769H19.3785H19.3801H19.3817H19.3833H19.3849H19.3865H19.388H19.3896H19.3912H19.3927H19.3943H19.3958H19.3974H19.3989H19.4005H19.402H19.4036H19.4051H19.4067H19.4082H19.4097H19.4112H19.4128H19.4143H19.4158H19.4173H19.4188H19.4203H19.4218H19.4233H19.4248H19.4263H19.4278H19.4293H19.4307H19.4322H19.4337H19.4352H19.4366H19.4381H19.4396Z" fill="#FFD8BF" stroke="#D4380D"/>
<path d="M31.2976 7.11918C31.4928 6.92392 31.4928 6.60733 31.2976 6.41207L28.1156 3.23009C27.9203 3.03483 27.6037 3.03483 27.4085 3.23009C27.2132 3.42535 27.2132 3.74194 27.4085 3.9372L30.2369 6.76562L27.4085 9.59405C27.2132 9.78931 27.2132 10.1059 27.4085 10.3012C27.6037 10.4964 27.9203 10.4964 28.1156 10.3012L31.2976 7.11918ZM22.708 7.26562H30.944V6.26562H22.708V7.26562Z" fill="#D4380D"/>
<path d="M18.3553 15.8247C18.16 15.6294 17.8434 15.6294 17.6482 15.8247L14.4662 19.0067C14.2709 19.2019 14.2709 19.5185 14.4662 19.7138C14.6614 19.909 14.978 19.909 15.1733 19.7138L18.0017 16.8854L20.8301 19.7138C21.0254 19.909 21.342 19.909 21.5372 19.7138C21.7325 19.5185 21.7325 19.2019 21.5372 19.0067L18.3553 15.8247ZM18.5017 30.2971L18.5017 16.1782L17.5017 16.1782L17.5017 30.2971L18.5017 30.2971Z" fill="#D4380D"/>
<line x1="13.2955" y1="29.7971" x2="18.0018" y2="29.7971" stroke="#D4380D"/>
</svg>
