<svg width="48" height="48" viewBox="0 0 48 48" fill="none" xmlns="http://www.w3.org/2000/svg">
<path d="M13.5406 27.5615C13.5824 27.5615 13.6374 27.5803 13.691 27.6417C13.7452 27.7038 13.787 27.8001 13.787 27.9162V39.0198C13.787 39.1366 13.7451 39.2327 13.6911 39.2946C13.6377 39.3557 13.5828 39.3745 13.5406 39.3745H3.09948C3.05731 39.3745 3.00237 39.3557 2.94901 39.2946C2.89499 39.2327 2.85315 39.1366 2.85315 39.0198V27.9162C2.85315 27.8001 2.8949 27.7038 2.94912 27.6417C3.0027 27.5803 3.05767 27.5615 3.09948 27.5615H6.07733H6.07974H6.08216H6.08458H6.087H6.08943H6.09187H6.09431H6.09676H6.09922H6.10168H6.10415H6.10662H6.1091H6.11158H6.11407H6.11657H6.11907H6.12157H6.12408H6.1266H6.12912H6.13165H6.13419H6.13673H6.13927H6.14182H6.14438H6.14694H6.1495H6.15207H6.15465H6.15723H6.15982H6.16241H6.16501H6.16761H6.17022H6.17283H6.17545H6.17807H6.1807H6.18334H6.18597H6.18862H6.19126H6.19392H6.19658H6.19924H6.20191H6.20458H6.20726H6.20994H6.21262H6.21532H6.21801H6.22071H6.22342H6.22613H6.22884H6.23156H6.23429H6.23702H6.23975H6.24249H6.24523H6.24798H6.25073H6.25348H6.25624H6.25901H6.26178H6.26455H6.26733H6.27011H6.27289H6.27568H6.27848H6.28128H6.28408H6.28689H6.2897H6.29251H6.29533H6.29815H6.30098H6.30381H6.30665H6.30948H6.31233H6.31517H6.31802H6.32088H6.32374H6.3266H6.32947H6.33234H6.33521H6.33809H6.34097H6.34385H6.34674H6.34963H6.35253H6.35542H6.35833H6.36123H6.36414H6.36706H6.36997H6.37289H6.37581H6.37874H6.38167H6.3846H6.38754H6.39048H6.39342H6.39637H6.39932H6.40227H6.40523H6.40819H6.41115H6.41412H6.41709H6.42006H6.42303H6.42601H6.42899H6.43197H6.43496H6.43795H6.44094H6.44394H6.44693H6.44994H6.45294H6.45595H6.45896H6.46197H6.46498H6.468H6.47102H6.47404H6.47707H6.48009H6.48313H6.48616H6.48919H6.49223H6.49527H6.49832H6.50136H6.50441H6.50746H6.51051H6.51357H6.51662H6.51968H6.52274H6.52581H6.52887H6.53194H6.53501H6.53809H6.54116H6.54424H6.54732H6.5504H6.55348H6.55657H6.55965H6.56274H6.56583H6.56893H6.57202H6.57512H6.57822H6.58132H6.58442H6.58752H6.59063H6.59373H6.59684H6.59995H6.60307H6.60618H6.6093H6.61241H6.61553H6.61865H6.62177H6.6249H6.62802H6.63115H6.63428H6.63741H6.64054H6.64367H6.6468H6.64994H6.65307H6.65621H6.65935H6.66249H6.66563H6.66877H6.67191H6.67506H6.6782H6.68135H6.68449H6.68764H6.69079H6.69394H6.69709H6.70025H6.7034H6.70655H6.70971H6.71286H6.71602H6.71918H6.72234H6.72549H6.72865H6.73181H6.73498H6.73814H6.7413H6.74446H6.74763H6.75079H6.75395H6.75712H6.76028H6.76345H6.76662H6.76978H6.77295H6.77612H6.77929H6.78246H6.78562H6.78879H6.79196H6.79513H6.7983H6.80147H6.80464H6.80781H6.81098H6.81415H6.81732H6.82049H6.82366H6.82683H6.83H6.83317H6.83634H6.83951H6.84268H6.84585H6.84902H6.85219H6.85536H6.85853H6.8617H6.86487H6.86804H6.87121H6.87437H6.87754H6.88071H6.88387H6.88704H6.89021H6.89337H6.89654H6.8997H6.90286H6.90603H6.90919H6.91235H6.91551H6.91867H6.92183H6.92499H6.92815H6.9313H6.93446H6.93762H6.94077H6.94393H6.94708H6.95023H6.95338H6.95653H6.95968H6.96283H6.96598H6.96912H6.97227H6.97541H6.97856H6.9817H6.98484H6.98798H6.99112H6.99425H6.99739H7.00052H7.00366H7.00679H7.00992H7.01305H7.01618H7.0193H7.02243H7.02555H7.02867H7.03179H7.03491H7.03803H7.04114H7.04426H7.04737H7.05048H7.05359H7.0567H7.0598H7.06291H7.06601H7.06911H7.07221H7.07531H7.0784H7.08149H7.08458H7.08767H7.09076H7.09385H7.09693H7.10001H7.10309H7.10616H7.10924H7.11231H7.11538H7.11845H7.12152H7.12458H7.12764H7.1307H7.13376H7.13681H7.13987H7.14292H7.14597H7.14901H7.15205H7.15509H7.15813H7.16117H7.1642H7.16723H7.17026H7.17328H7.17631H7.17933H7.18234H7.18536H7.18837H7.19138H7.19439H7.19739H7.20039H7.20339H7.20638H7.20938H7.21237H7.21535H7.21834H7.22132H7.22429H7.22727H7.23024H7.23321H7.23617H7.23914H7.2421H7.24505H7.248H7.25095H7.2539H7.25684H7.25978H7.26272H7.26565H7.26858H7.27151H7.27443H7.27735H7.28027H7.28318H7.28609H7.289H7.2919H7.2948H7.2977H7.30059H7.30347H7.30636H7.30924H7.31212H7.31499H7.31786H7.32073H7.32359H7.32645H7.3293H7.33215H7.335H7.33784H7.34068H7.34351H7.34635H7.34917H7.352H7.35481H7.35763H7.36044H7.36325H7.36605H7.36885H7.37164H7.37443H7.37722H7.38H7.38278H7.38555H7.38832H7.39108H7.39384H7.3966H7.39935H7.4021H7.40484H7.40758H7.41031H7.41304H7.41576H7.41848H7.4212H7.42391H7.42661H7.42931H7.43201H7.4347H7.43739H7.44007H7.44275H7.44542H7.44809H7.45075H7.45341H7.45606H7.45871H7.46135H7.46399H7.46662H7.46925H7.47188H7.47449H7.47711H7.47971H7.48232H7.48491H7.48751H7.49009H7.49268H7.49525H7.49782H7.50039H7.50295H7.50551H7.50806H7.5106H7.51314H7.51567H7.5182H7.52072H7.52324H7.52575H7.52826H7.53076H7.53326H7.53575H7.53823H7.54071H7.54318H7.54565H7.54811H7.55056H7.55301H7.55545H7.55789H7.56032H7.56275H7.56517H7.56758H7.56999H9.06265H9.06506H9.06747H9.06989H9.07232H9.07475H9.07719H9.07963H9.08208H9.08454H9.087H9.08947H9.09194H9.09442H9.0969H9.09939H9.10188H9.10438H9.10689H9.1094H9.11192H9.11444H9.11697H9.1195H9.12204H9.12459H9.12714H9.12969H9.13226H9.13482H9.13739H9.13997H9.14255H9.14514H9.14773H9.15033H9.15293H9.15554H9.15815H9.16077H9.16339H9.16602H9.16865H9.17129H9.17394H9.17658H9.17924H9.18189H9.18456H9.18722H9.1899H9.19257H9.19526H9.19794H9.20063H9.20333H9.20603H9.20874H9.21145H9.21416H9.21688H9.21961H9.22234H9.22507H9.22781H9.23055H9.2333H9.23605H9.2388H9.24156H9.24433H9.2471H9.24987H9.25265H9.25543H9.25821H9.261H9.2638H9.26659H9.2694H9.2722H9.27501H9.27783H9.28065H9.28347H9.2863H9.28913H9.29197H9.2948H9.29765H9.30049H9.30334H9.3062H9.30906H9.31192H9.31478H9.31765H9.32053H9.3234H9.32629H9.32917H9.33206H9.33495H9.33784H9.34074H9.34365H9.34655H9.34946H9.35237H9.35529H9.35821H9.36113H9.36406H9.36699H9.36992H9.37286H9.3758H9.37874H9.38169H9.38464H9.38759H9.39055H9.39351H9.39647H9.39944H9.4024H9.40538H9.40835H9.41133H9.41431H9.41729H9.42028H9.42327H9.42626H9.42926H9.43225H9.43525H9.43826H9.44126H9.44427H9.44729H9.4503H9.45332H9.45634H9.45936H9.46239H9.46541H9.46844H9.47148H9.47451H9.47755H9.48059H9.48363H9.48668H9.48973H9.49278H9.49583H9.49888H9.50194H9.505H9.50806H9.51113H9.51419H9.51726H9.52033H9.5234H9.52648H9.52956H9.53264H9.53572H9.5388H9.54188H9.54497H9.54806H9.55115H9.55424H9.55734H9.56044H9.56353H9.56663H9.56974H9.57284H9.57595H9.57905H9.58216H9.58527H9.58839H9.5915H9.59462H9.59773H9.60085H9.60397H9.60709H9.61022H9.61334H9.61647H9.6196H9.62273H9.62586H9.62899H9.63212H9.63525H9.63839H9.64153H9.64467H9.64781H9.65095H9.65409H9.65723H9.66038H9.66352H9.66667H9.66981H9.67296H9.67611H9.67926H9.68241H9.68557H9.68872H9.69187H9.69503H9.69818H9.70134H9.7045H9.70765H9.71081H9.71397H9.71713H9.72029H9.72346H9.72662H9.72978H9.73294H9.73611H9.73927H9.74244H9.7456H9.74877H9.75194H9.7551H9.75827H9.76144H9.76461H9.76777H9.77094H9.77411H9.77728H9.78045H9.78362H9.78679H9.78996H9.79313H9.7963H9.79947H9.80264H9.80581H9.80898H9.81215H9.81532H9.81849H9.82166H9.82483H9.828H9.83117H9.83434H9.83751H9.84068H9.84385H9.84702H9.85019H9.85336H9.85652H9.85969H9.86286H9.86603H9.86919H9.87236H9.87552H9.87869H9.88185H9.88502H9.88818H9.89134H9.89451H9.89767H9.90083H9.90399H9.90715H9.91031H9.91347H9.91662H9.91978H9.92294H9.92609H9.92924H9.9324H9.93555H9.9387H9.94185H9.945H9.94815H9.9513H9.95444H9.95759H9.96073H9.96388H9.96702H9.97016H9.9733H9.97644H9.97957H9.98271H9.98584H9.98898H9.99211H9.99524H9.99837H10.0015H10.0046H10.0077H10.0109H10.014H10.0171H10.0202H10.0233H10.0265H10.0296H10.0327H10.0358H10.0389H10.042H10.0451H10.0482H10.0513H10.0544H10.0575H10.0606H10.0637H10.0668H10.0699H10.073H10.0761H10.0792H10.0822H10.0853H10.0884H10.0915H10.0946H10.0976H10.1007H10.1038H10.1068H10.1099H10.113H10.116H10.1191H10.1221H10.1252H10.1282H10.1313H10.1343H10.1374H10.1404H10.1435H10.1465H10.1495H10.1525H10.1556H10.1586H10.1616H10.1646H10.1677H10.1707H10.1737H10.1767H10.1797H10.1827H10.1857H10.1887H10.1917H10.1947H10.1977H10.2007H10.2037H10.2066H10.2096H10.2126H10.2156H10.2185H10.2215H10.2245H10.2274H10.2304H10.2333H10.2363H10.2392H10.2422H10.2451H10.248H10.251H10.2539H10.2568H10.2598H10.2627H10.2656H10.2685H10.2714H10.2743H10.2772H10.2801H10.283H10.2859H10.2888H10.2917H10.2946H10.2974H10.3003H10.3032H10.306H10.3089H10.3118H10.3146H10.3175H10.3203H10.3232H10.326H10.3288H10.3317H10.3345H10.3373H10.3401H10.3429H10.3458H10.3486H10.3514H10.3542H10.357H10.3598H10.3625H10.3653H10.3681H10.3709H10.3736H10.3764H10.3792H10.3819H10.3847H10.3874H10.3902H10.3929H10.3956H10.3984H10.4011H10.4038H10.4065H10.4092H10.4119H10.4146H10.4173H10.42H10.4227H10.4254H10.4281H10.4307H10.4334H10.4361H10.4387H10.4414H10.444H10.4467H10.4493H10.4519H10.4546H10.4572H10.4598H10.4624H10.465H10.4676H10.4702H10.4728H10.4754H10.478H10.4806H10.4831H10.4857H10.4883H10.4908H10.4934H10.4959H10.4985H10.501H10.5035H10.506H10.5086H10.5111H10.5136H10.5161H10.5186H10.5211H10.5235H10.526H10.5285H10.531H10.5334H10.5359H10.5383H10.5408H10.5432H10.5456H10.5481H10.5505H10.5529H10.5553H13.5406Z" fill="#FFD8BF" stroke="#D4380D"/>
<path d="M45.1505 6.38281C45.1848 6.38281 45.2362 6.39836 45.2895 6.46094C45.3435 6.52428 45.3863 6.62425 45.3863 6.74615V17.9618C45.3863 18.0843 45.3434 18.1841 45.2896 18.2472C45.2366 18.3095 45.1852 18.3251 45.1505 18.3251H34.8564C34.8218 18.3251 34.7704 18.3095 34.7173 18.2472C34.6636 18.1841 34.6206 18.0843 34.6206 17.9618V6.74615C34.6206 6.62425 34.6635 6.52428 34.7174 6.46094C34.7707 6.39836 34.8222 6.38281 34.8564 6.38281H37.7923H37.7947H37.7971H37.7995H37.8019H37.8043H37.8067H37.8091H37.8115H37.8139H37.8163H37.8188H37.8212H37.8237H37.8261H37.8286H37.831H37.8335H37.836H37.8384H37.8409H37.8434H37.8459H37.8484H37.8509H37.8534H37.8559H37.8584H37.861H37.8635H37.866H37.8686H37.8711H37.8737H37.8762H37.8788H37.8813H37.8839H37.8865H37.8891H37.8917H37.8942H37.8968H37.8994H37.9021H37.9047H37.9073H37.9099H37.9125H37.9152H37.9178H37.9204H37.9231H37.9257H37.9284H37.931H37.9337H37.9364H37.939H37.9417H37.9444H37.9471H37.9498H37.9525H37.9552H37.9579H37.9606H37.9633H37.966H37.9687H37.9715H37.9742H37.9769H37.9797H37.9824H37.9851H37.9879H37.9906H37.9934H37.9962H37.9989H38.0017H38.0045H38.0073H38.01H38.0128H38.0156H38.0184H38.0212H38.024H38.0268H38.0296H38.0325H38.0353H38.0381H38.0409H38.0437H38.0466H38.0494H38.0523H38.0551H38.0579H38.0608H38.0637H38.0665H38.0694H38.0722H38.0751H38.078H38.0809H38.0837H38.0866H38.0895H38.0924H38.0953H38.0982H38.1011H38.104H38.1069H38.1098H38.1127H38.1156H38.1185H38.1215H38.1244H38.1273H38.1302H38.1332H38.1361H38.139H38.142H38.1449H38.1479H38.1508H38.1538H38.1567H38.1597H38.1627H38.1656H38.1686H38.1716H38.1745H38.1775H38.1805H38.1835H38.1864H38.1894H38.1924H38.1954H38.1984H38.2014H38.2044H38.2074H38.2104H38.2134H38.2164H38.2194H38.2224H38.2254H38.2285H38.2315H38.2345H38.2375H38.2405H38.2436H38.2466H38.2496H38.2527H38.2557H38.2587H38.2618H38.2648H38.2679H38.2709H38.274H38.277H38.2801H38.2831H38.2862H38.2892H38.2923H38.2953H38.2984H38.3015H38.3045H38.3076H38.3107H38.3137H38.3168H38.3199H38.323H38.326H38.3291H38.3322H38.3353H38.3384H38.3414H38.3445H38.3476H38.3507H38.3538H38.3569H38.36H38.3631H38.3662H38.3692H38.3723H38.3754H38.3785H38.3816H38.3847H38.3878H38.3909H38.3941H38.3972H38.4003H38.4034H38.4065H38.4096H38.4127H38.4158H38.4189H38.422H38.4251H38.4283H38.4314H38.4345H38.4376H38.4407H38.4438H38.447H38.4501H38.4532H38.4563H38.4594H38.4625H38.4657H38.4688H38.4719H38.475H38.4782H38.4813H38.4844H38.4875H38.4907H38.4938H38.4969H38.5H38.5031H38.5063H38.5094H38.5125H38.5157H38.5188H38.5219H38.525H38.5282H38.5313H38.5344H38.5375H38.5407H38.5438H38.5469H38.55H38.5532H38.5563H38.5594H38.5625H38.5657H38.5688H38.5719H38.575H38.5782H38.5813H38.5844H38.5875H38.5906H38.5938H38.5969H38.6H38.6031H38.6062H38.6094H38.6125H38.6156H38.6187H38.6218H38.6249H38.6281H38.6312H38.6343H38.6374H38.6405H38.6436H38.6467H38.6498H38.6529H38.656H38.6592H38.6623H38.6654H38.6685H38.6716H38.6747H38.6778H38.6809H38.684H38.6871H38.6902H38.6932H38.6963H38.6994H38.7025H38.7056H38.7087H38.7118H38.7149H38.718H38.721H38.7241H38.7272H38.7303H38.7334H38.7364H38.7395H38.7426H38.7456H38.7487H38.7518H38.7548H38.7579H38.761H38.764H38.7671H38.7701H38.7732H38.7763H38.7793H38.7824H38.7854H38.7884H38.7915H38.7945H38.7976H38.8006H38.8036H38.8067H38.8097H38.8127H38.8158H38.8188H38.8218H38.8248H38.8279H38.8309H38.8339H38.8369H38.8399H38.8429H38.8459H38.8489H38.8519H38.8549H38.8579H38.8609H38.8639H38.8669H38.8699H38.8729H38.8758H38.8788H38.8818H38.8848H38.8877H38.8907H38.8937H38.8966H38.8996H38.9025H38.9055H38.9084H38.9114H38.9143H38.9173H38.9202H38.9231H38.9261H38.929H38.9319H38.9349H38.9378H38.9407H38.9436H38.9465H38.9494H38.9523H38.9552H38.9581H38.961H38.9639H38.9668H38.9697H38.9726H38.9755H38.9783H38.9812H38.9841H38.9869H38.9898H38.9927H38.9955H38.9984H39.0012H39.0041H39.0069H39.0097H39.0126H39.0154H39.0182H39.021H39.0239H39.0267H39.0295H39.0323H39.0351H39.0379H39.0407H39.0435H39.0463H39.049H39.0518H39.0546H39.0574H39.0601H39.0629H39.0657H39.0684H39.0712H39.0739H39.0767H39.0794H39.0821H39.0849H39.0876H39.0903H39.093H39.0957H39.0984H39.1011H39.1038H39.1065H39.1092H39.1119H39.1146H39.1173H39.1199H39.1226H39.1253H39.1279H39.1306H39.1332H39.1359H39.1385H39.1412H39.1438H39.1464H39.149H39.1516H39.1543H39.1569H39.1595H39.1621H39.1647H39.1672H39.1698H39.1724H39.175H39.1775H39.1801H39.1826H39.1852H39.1877H39.1903H39.1928H39.1953H39.1979H39.2004H39.2029H39.2054H39.2079H39.2104H39.2129H39.2154H39.2179H39.2204H39.2228H39.2253H39.2278H39.2302H39.2327H39.2351H39.2375H39.24H39.2424H39.2448H39.2472H39.2496H39.252H39.2544H39.2568H39.2592H39.2616H39.264H40.7356H40.738H40.7404H40.7427H40.7451H40.7475H40.7499H40.7523H40.7548H40.7572H40.7596H40.762H40.7645H40.7669H40.7694H40.7718H40.7743H40.7768H40.7792H40.7817H40.7842H40.7867H40.7892H40.7917H40.7942H40.7967H40.7992H40.8017H40.8042H40.8068H40.8093H40.8118H40.8144H40.8169H40.8195H40.822H40.8246H40.8272H40.8298H40.8323H40.8349H40.8375H40.8401H40.8427H40.8453H40.8479H40.8505H40.8532H40.8558H40.8584H40.8611H40.8637H40.8663H40.869H40.8716H40.8743H40.877H40.8796H40.8823H40.885H40.8877H40.8904H40.893H40.8957H40.8984H40.9011H40.9038H40.9066H40.9093H40.912H40.9147H40.9175H40.9202H40.9229H40.9257H40.9284H40.9312H40.9339H40.9367H40.9394H40.9422H40.945H40.9478H40.9505H40.9533H40.9561H40.9589H40.9617H40.9645H40.9673H40.9701H40.9729H40.9757H40.9785H40.9814H40.9842H40.987H40.9899H40.9927H40.9955H40.9984H41.0012H41.0041H41.0069H41.0098H41.0126H41.0155H41.0184H41.0212H41.0241H41.027H41.0299H41.0328H41.0357H41.0386H41.0414H41.0443H41.0472H41.0502H41.0531H41.056H41.0589H41.0618H41.0647H41.0676H41.0706H41.0735H41.0764H41.0794H41.0823H41.0853H41.0882H41.0911H41.0941H41.097H41.1H41.103H41.1059H41.1089H41.1119H41.1148H41.1178H41.1208H41.1237H41.1267H41.1297H41.1327H41.1357H41.1387H41.1417H41.1447H41.1477H41.1507H41.1537H41.1567H41.1597H41.1627H41.1657H41.1687H41.1717H41.1747H41.1778H41.1808H41.1838H41.1868H41.1899H41.1929H41.1959H41.199H41.202H41.205H41.2081H41.2111H41.2142H41.2172H41.2203H41.2233H41.2264H41.2294H41.2325H41.2356H41.2386H41.2417H41.2447H41.2478H41.2509H41.2539H41.257H41.2601H41.2632H41.2662H41.2693H41.2724H41.2755H41.2785H41.2816H41.2847H41.2878H41.2909H41.294H41.2971H41.3001H41.3032H41.3063H41.3094H41.3125H41.3156H41.3187H41.3218H41.3249H41.328H41.3311H41.3342H41.3373H41.3404H41.3435H41.3466H41.3497H41.3529H41.356H41.3591H41.3622H41.3653H41.3684H41.3715H41.3746H41.3778H41.3809H41.384H41.3871H41.3902H41.3933H41.3965H41.3996H41.4027H41.4058H41.4089H41.4121H41.4152H41.4183H41.4214H41.4246H41.4277H41.4308H41.4339H41.437H41.4402H41.4433H41.4464H41.4495H41.4527H41.4558H41.4589H41.462H41.4652H41.4683H41.4714H41.4746H41.4777H41.4808H41.4839H41.4871H41.4902H41.4933H41.4964H41.4996H41.5027H41.5058H41.5089H41.5121H41.5152H41.5183H41.5214H41.5245H41.5277H41.5308H41.5339H41.537H41.5402H41.5433H41.5464H41.5495H41.5526H41.5557H41.5589H41.562H41.5651H41.5682H41.5713H41.5744H41.5776H41.5807H41.5838H41.5869H41.59H41.5931H41.5962H41.5993H41.6024H41.6055H41.6086H41.6117H41.6148H41.6179H41.621H41.6241H41.6272H41.6303H41.6334H41.6365H41.6396H41.6427H41.6458H41.6489H41.652H41.6551H41.6581H41.6612H41.6643H41.6674H41.6705H41.6735H41.6766H41.6797H41.6828H41.6858H41.6889H41.692H41.695H41.6981H41.7012H41.7042H41.7073H41.7104H41.7134H41.7165H41.7195H41.7226H41.7256H41.7287H41.7317H41.7348H41.7378H41.7408H41.7439H41.7469H41.7499H41.753H41.756H41.759H41.7621H41.7651H41.7681H41.7711H41.7741H41.7772H41.7802H41.7832H41.7862H41.7892H41.7922H41.7952H41.7982H41.8012H41.8042H41.8072H41.8102H41.8131H41.8161H41.8191H41.8221H41.8251H41.828H41.831H41.834H41.8369H41.8399H41.8428H41.8458H41.8488H41.8517H41.8547H41.8576H41.8605H41.8635H41.8664H41.8693H41.8723H41.8752H41.8781H41.881H41.884H41.8869H41.8898H41.8927H41.8956H41.8985H41.9014H41.9043H41.9072H41.9101H41.913H41.9158H41.9187H41.9216H41.9245H41.9273H41.9302H41.9331H41.9359H41.9388H41.9416H41.9445H41.9473H41.9502H41.953H41.9558H41.9587H41.9615H41.9643H41.9671H41.9699H41.9728H41.9756H41.9784H41.9812H41.984H41.9867H41.9895H41.9923H41.9951H41.9979H42.0006H42.0034H42.0062H42.0089H42.0117H42.0144H42.0172H42.0199H42.0227H42.0254H42.0281H42.0309H42.0336H42.0363H42.039H42.0417H42.0444H42.0471H42.0498H42.0525H42.0552H42.0579H42.0605H42.0632H42.0659H42.0685H42.0712H42.0739H42.0765H42.0792H42.0818H42.0844H42.0871H42.0897H42.0923H42.0949H42.0975H42.1001H42.1027H42.1053H42.1079H42.1105H42.1131H42.1157H42.1182H42.1208H42.1234H42.1259H42.1285H42.131H42.1336H42.1361H42.1386H42.1411H42.1437H42.1462H42.1487H42.1512H42.1537H42.1562H42.1587H42.1612H42.1636H42.1661H42.1686H42.171H42.1735H42.1759H42.1784H42.1808H42.1832H42.1857H42.1881H42.1905H42.1929H42.1953H42.1977H42.2001H42.2025H42.2049H42.2072H45.1505Z" fill="#FFD8BF" stroke="#D4380D"/>
<path d="M21.4395 6.38281H23.1308C23.1661 6.45761 23.1995 6.58484 23.1995 6.74615V17.9618C23.1995 18.1234 23.1662 18.2505 23.131 18.3251H17.0406C17.0054 18.2505 16.972 18.1234 16.972 17.9618V6.74615C16.972 6.58484 17.0054 6.45761 17.0407 6.38281H18.7275H18.729H18.7304H18.7319H18.7334H18.7348H18.7363H18.7378H18.7393H18.7408H18.7423H18.7437H18.7452H18.7467H18.7482H18.7498H18.7513H18.7528H18.7543H18.7558H18.7573H18.7589H18.7604H18.7619H18.7635H18.765H18.7666H18.7681H18.7697H18.7712H18.7728H18.7743H18.7759H18.7775H18.779H18.7806H18.7822H18.7838H18.7853H18.7869H18.7885H18.7901H18.7917H18.7933H18.7949H18.7965H18.7981H18.7997H18.8013H18.803H18.8046H18.8062H18.8078H18.8094H18.8111H18.8127H18.8143H18.816H18.8176H18.8193H18.8209H18.8226H18.8242H18.8259H18.8275H18.8292H18.8309H18.8325H18.8342H18.8359H18.8375H18.8392H18.8409H18.8426H18.8443H18.8459H18.8476H18.8493H18.851H18.8527H18.8544H18.8561H18.8578H18.8595H18.8612H18.863H18.8647H18.8664H18.8681H18.8698H18.8716H18.8733H18.875H18.8767H18.8785H18.8802H18.8819H18.8837H18.8854H18.8872H18.8889H18.8907H18.8924H18.8942H18.8959H18.8977H18.8994H18.9012H18.903H18.9047H18.9065H18.9083H18.9101H18.9118H18.9136H18.9154H18.9172H18.9189H18.9207H18.9225H18.9243H18.9261H18.9279H18.9297H18.9315H18.9333H18.9351H18.9369H18.9387H18.9405H18.9423H18.9441H18.9459H18.9477H18.9495H18.9514H18.9532H18.955H18.9568H18.9586H18.9605H18.9623H18.9641H18.9659H18.9678H18.9696H18.9714H18.9733H18.9751H18.9769H18.9788H18.9806H18.9825H18.9843H18.9862H18.988H18.9899H18.9917H18.9936H18.9954H18.9973H18.9991H19.001H19.0028H19.0047H19.0066H19.0084H19.0103H19.0121H19.014H19.0159H19.0177H19.0196H19.0215H19.0234H19.0252H19.0271H19.029H19.0309H19.0327H19.0346H19.0365H19.0384H19.0403H19.0421H19.044H19.0459H19.0478H19.0497H19.0516H19.0535H19.0553H19.0572H19.0591H19.061H19.0629H19.0648H19.0667H19.0686H19.0705H19.0724H19.0743H19.0762H19.0781H19.08H19.0819H19.0838H19.0857H19.0876H19.0895H19.0914H19.0933H19.0952H19.0971H19.099H19.1009H19.1029H19.1048H19.1067H19.1086H19.1105H19.1124H19.1143H19.1162H19.1181H19.1201H19.122H19.1239H19.1258H19.1277H19.1296H19.1315H19.1335H19.1354H19.1373H19.1392H19.1411H19.143H19.145H19.1469H19.1488H19.1507H19.1526H19.1546H19.1565H19.1584H19.1603H19.1622H19.1641H19.1661H19.168H19.1699H19.1718H19.1737H19.1757H19.1776H19.1795H19.1814H19.1834H19.1853H19.1872H19.1891H19.191H19.1929H19.1949H19.1968H19.1987H19.2006H19.2025H19.2045H19.2064H19.2083H19.2102H19.2121H19.2141H19.216H19.2179H19.2198H19.2217H19.2236H19.2256H19.2275H19.2294H19.2313H19.2332H19.2351H19.2371H19.239H19.2409H19.2428H19.2447H19.2466H19.2485H19.2504H19.2523H19.2543H19.2562H19.2581H19.26H19.2619H19.2638H19.2657H19.2676H19.2695H19.2714H19.2733H19.2752H19.2771H19.279H19.2809H19.2828H19.2847H19.2866H19.2885H19.2904H19.2923H19.2942H19.2961H19.298H19.2999H19.3018H19.3037H19.3056H19.3074H19.3093H19.3112H19.3131H19.315H19.3169H19.3188H19.3206H19.3225H19.3244H19.3263H19.3282H19.33H19.3319H19.3338H19.3357H19.3375H19.3394H19.3413H19.3431H19.345H19.3469H19.3487H19.3506H19.3525H19.3543H19.3562H19.358H19.3599H19.3618H19.3636H19.3655H19.3673H19.3692H19.371H19.3729H19.3747H19.3766H19.3784H19.3802H19.3821H19.3839H19.3858H19.3876H19.3894H19.3913H19.3931H19.3949H19.3967H19.3986H19.4004H19.4022H19.404H19.4059H19.4077H19.4095H19.4113H19.4131H19.4149H19.4167H19.4185H19.4203H19.4221H19.4239H19.4257H19.4275H19.4293H19.4311H19.4329H19.4347H19.4365H19.4383H19.4401H19.4419H19.4436H19.4454H19.4472H19.449H19.4507H19.4525H19.4543H19.456H19.4578H19.4596H19.4613H19.4631H19.4648H19.4666H19.4684H19.4701H19.4718H19.4736H19.4753H19.4771H19.4788H19.4805H19.4823H19.484H19.4857H19.4875H19.4892H19.4909H19.4926H19.4943H19.4961H19.4978H19.4995H19.5012H19.5029H19.5046H19.5063H19.508H19.5097H19.5114H19.5131H19.5148H19.5164H19.5181H19.5198H19.5215H19.5232H19.5248H19.5265H19.5282H19.5298H19.5315H19.5331H19.5348H19.5365H19.5381H19.5398H19.5414H19.543H19.5447H19.5463H19.5479H19.5496H19.5512H19.5528H19.5544H19.5561H19.5577H19.5593H19.5609H19.5625H19.5641H19.5657H19.5673H19.5689H19.5705H19.5721H19.5737H19.5753H19.5768H19.5784H19.58H19.5816H19.5831H19.5847H19.5862H19.5878H19.5894H19.5909H19.5925H19.594H19.5955H19.5971H19.5986H19.6001H19.6017H19.6032H19.6047H19.6062H19.6078H19.6093H19.6108H19.6123H19.6138H19.6153H19.6168H19.6183H19.6197H19.6212H19.6227H19.6242H19.6257H19.6271H19.6286H19.6301H19.6315H20.5355H20.537H20.5384H20.5399H20.5414H20.5428H20.5443H20.5458H20.5473H20.5488H20.5503H20.5518H20.5533H20.5548H20.5563H20.5578H20.5593H20.5608H20.5623H20.5638H20.5654H20.5669H20.5684H20.5699H20.5715H20.573H20.5746H20.5761H20.5777H20.5792H20.5808H20.5823H20.5839H20.5855H20.587H20.5886H20.5902H20.5918H20.5934H20.5949H20.5965H20.5981H20.5997H20.6013H20.6029H20.6045H20.6061H20.6077H20.6093H20.611H20.6126H20.6142H20.6158H20.6175H20.6191H20.6207H20.6224H20.624H20.6256H20.6273H20.6289H20.6306H20.6322H20.6339H20.6355H20.6372H20.6389H20.6405H20.6422H20.6439H20.6455H20.6472H20.6489H20.6506H20.6523H20.654H20.6556H20.6573H20.659H20.6607H20.6624H20.6641H20.6658H20.6675H20.6693H20.671H20.6727H20.6744H20.6761H20.6778H20.6796H20.6813H20.683H20.6847H20.6865H20.6882H20.69H20.6917H20.6934H20.6952H20.6969H20.6987H20.7004H20.7022H20.7039H20.7057H20.7075H20.7092H20.711H20.7127H20.7145H20.7163H20.7181H20.7198H20.7216H20.7234H20.7252H20.727H20.7287H20.7305H20.7323H20.7341H20.7359H20.7377H20.7395H20.7413H20.7431H20.7449H20.7467H20.7485H20.7503H20.7521H20.7539H20.7557H20.7575H20.7594H20.7612H20.763H20.7648H20.7666H20.7685H20.7703H20.7721H20.7739H20.7758H20.7776H20.7794H20.7813H20.7831H20.785H20.7868H20.7886H20.7905H20.7923H20.7942H20.796H20.7979H20.7997H20.8016H20.8034H20.8053H20.8071H20.809H20.8108H20.8127H20.8146H20.8164H20.8183H20.8202H20.822H20.8239H20.8258H20.8276H20.8295H20.8314H20.8332H20.8351H20.837H20.8389H20.8407H20.8426H20.8445H20.8464H20.8483H20.8502H20.852H20.8539H20.8558H20.8577H20.8596H20.8615H20.8634H20.8652H20.8671H20.869H20.8709H20.8728H20.8747H20.8766H20.8785H20.8804H20.8823H20.8842H20.8861H20.888H20.8899H20.8918H20.8937H20.8956H20.8975H20.8994H20.9013H20.9032H20.9051H20.907H20.909H20.9109H20.9128H20.9147H20.9166H20.9185H20.9204H20.9223H20.9242H20.9262H20.9281H20.93H20.9319H20.9338H20.9357H20.9376H20.9396H20.9415H20.9434H20.9453H20.9472H20.9491H20.9511H20.953H20.9549H20.9568H20.9587H20.9606H20.9626H20.9645H20.9664H20.9683H20.9702H20.9722H20.9741H20.976H20.9779H20.9798H20.9818H20.9837H20.9856H20.9875H20.9894H20.9914H20.9933H20.9952H20.9971H20.999H21.001H21.0029H21.0048H21.0067H21.0086H21.0106H21.0125H21.0144H21.0163H21.0182H21.0202H21.0221H21.024H21.0259H21.0278H21.0297H21.0317H21.0336H21.0355H21.0374H21.0393H21.0412H21.0431H21.0451H21.047H21.0489H21.0508H21.0527H21.0546H21.0565H21.0584H21.0604H21.0623H21.0642H21.0661H21.068H21.0699H21.0718H21.0737H21.0756H21.0775H21.0794H21.0813H21.0832H21.0851H21.087H21.0889H21.0908H21.0927H21.0946H21.0965H21.0984H21.1003H21.1022H21.1041H21.106H21.1079H21.1098H21.1117H21.1136H21.1155H21.1173H21.1192H21.1211H21.123H21.1249H21.1268H21.1287H21.1305H21.1324H21.1343H21.1362H21.138H21.1399H21.1418H21.1437H21.1455H21.1474H21.1493H21.1512H21.153H21.1549H21.1567H21.1586H21.1605H21.1623H21.1642H21.1661H21.1679H21.1698H21.1716H21.1735H21.1753H21.1772H21.179H21.1809H21.1827H21.1846H21.1864H21.1882H21.1901H21.1919H21.1938H21.1956H21.1974H21.1993H21.2011H21.2029H21.2047H21.2066H21.2084H21.2102H21.212H21.2139H21.2157H21.2175H21.2193H21.2211H21.2229H21.2247H21.2265H21.2284H21.2302H21.232H21.2338H21.2356H21.2374H21.2391H21.2409H21.2427H21.2445H21.2463H21.2481H21.2499H21.2516H21.2534H21.2552H21.257H21.2588H21.2605H21.2623H21.2641H21.2658H21.2676H21.2693H21.2711H21.2729H21.2746H21.2764H21.2781H21.2799H21.2816H21.2833H21.2851H21.2868H21.2886H21.2903H21.292H21.2938H21.2955H21.2972H21.2989H21.3006H21.3024H21.3041H21.3058H21.3075H21.3092H21.3109H21.3126H21.3143H21.316H21.3177H21.3194H21.3211H21.3228H21.3245H21.3261H21.3278H21.3295H21.3312H21.3328H21.3345H21.3362H21.3378H21.3395H21.3412H21.3428H21.3445H21.3461H21.3478H21.3494H21.351H21.3527H21.3543H21.356H21.3576H21.3592H21.3608H21.3625H21.3641H21.3657H21.3673H21.3689H21.3705H21.3721H21.3737H21.3753H21.3769H21.3785H21.3801H21.3817H21.3833H21.3848H21.3864H21.388H21.3896H21.3911H21.3927H21.3943H21.3958H21.3974H21.3989H21.4005H21.402H21.4036H21.4051H21.4066H21.4082H21.4097H21.4112H21.4127H21.4142H21.4158H21.4173H21.4188H21.4203H21.4218H21.4233H21.4248H21.4263H21.4278H21.4292H21.4307H21.4322H21.4337H21.4351H21.4366H21.4381H21.4395Z" fill="#FFD8BF" stroke="#D4380D"/>
<path d="M33.2976 12.1192C33.4928 11.9239 33.4928 11.6073 33.2976 11.4121L30.1156 8.23009C29.9203 8.03483 29.6037 8.03483 29.4085 8.23009C29.2132 8.42535 29.2132 8.74194 29.4085 8.9372L32.2369 11.7656L29.4085 14.5941C29.2132 14.7893 29.2132 15.1059 29.4085 15.3012C29.6037 15.4964 29.9203 15.4964 30.1156 15.3012L33.2976 12.1192ZM24.708 12.2656H32.944V11.2656H24.708V12.2656Z" fill="#D4380D"/>
<path d="M20.3553 20.8244C20.16 20.6292 19.8434 20.6292 19.6482 20.8244L16.4662 24.0064C16.2709 24.2017 16.2709 24.5183 16.4662 24.7135C16.6614 24.9088 16.978 24.9088 17.1733 24.7135L20.0017 21.8851L22.8301 24.7135C23.0254 24.9088 23.342 24.9088 23.5372 24.7135C23.7325 24.5183 23.7325 24.2017 23.5372 24.0064L20.3553 20.8244ZM20.5017 35.2969L20.5017 21.178L19.5017 21.178L19.5017 35.2969L20.5017 35.2969Z" fill="#D4380D"/>
<line x1="15.2955" y1="34.7969" x2="20.0018" y2="34.7969" stroke="#D4380D"/>
</svg>
