<svg width="48" height="48" viewBox="0 0 48 48" fill="none" xmlns="http://www.w3.org/2000/svg">
<path d="M39.9832 5.43984C39.977 5.41211 39.9602 5.39023 39.952 5.36406C39.9383 5.31914 39.9203 5.27578 39.8984 5.23438C39.8734 5.18672 39.8434 5.14219 39.809 5.10078C39.7812 5.06641 39.7508 5.03438 39.7176 5.00469C39.6773 4.9707 39.6332 4.94141 39.5863 4.9168C39.5469 4.89297 39.5051 4.87266 39.4617 4.85586C39.4098 4.83945 39.3559 4.82852 39.3016 4.82305C39.2684 4.81328 39.2344 4.80547 39.2 4.8H35.1664C34.9602 2.01523 33.668 0 32 0C30.332 0 29.0398 2.01523 28.8336 4.8H27.1664C26.9602 2.01523 25.668 0 24 0C22.332 0 21.0398 2.01523 20.8336 4.8H19.1664C18.9602 2.01523 17.668 0 16 0C14.332 0 13.0398 2.01523 12.8336 4.8H11.1664C10.9602 2.01523 9.66797 0 8 0C6.33203 0 5.03984 2.01523 4.83359 4.8H0.8C0.358203 4.8 0 5.1582 0 5.6V47.2C0 47.6418 0.358203 48 0.8 48H39.2C39.6418 48 40 47.6418 40 47.2V44.8H47.2C47.4402 44.8 47.6676 44.6918 47.8191 44.5059C47.9711 44.3195 48.0312 44.0754 47.9832 43.8398L39.9832 5.43984ZM32 1.6C32.5777 1.6 33.384 2.82578 33.5617 4.8H30.4414C30.616 2.82578 31.4223 1.6 32 1.6ZM24 1.6C24.5777 1.6 25.384 2.82578 25.5617 4.8H22.4414C22.616 2.82578 23.4223 1.6 24 1.6ZM16 1.6C16.5777 1.6 17.384 2.82578 17.5617 4.8H14.4414C14.616 2.82578 15.4223 1.6 16 1.6ZM8 1.6C8.57773 1.6 9.38398 2.82578 9.56172 4.8H6.44141C6.61602 2.82578 7.42227 1.6 8 1.6ZM1.6 6.4H4.83359C5.03984 9.18477 6.33203 11.2 8 11.2C8.4418 11.2 8.8 10.8418 8.8 10.4C8.8 9.9582 8.4418 9.6 8 9.6C7.42227 9.6 6.61602 8.37422 6.43828 6.4H12.8336C13.0426 9.18477 14.332 11.2 16 11.2C16.4418 11.2 16.8 10.8418 16.8 10.4C16.8 9.9582 16.4418 9.6 16 9.6C15.4223 9.6 14.616 8.37422 14.4383 6.4H20.8336C21.0426 9.18477 22.332 11.2 24 11.2C24.4418 11.2 24.8 10.8418 24.8 10.4C24.8 9.9582 24.4418 9.6 24 9.6C23.4223 9.6 22.616 8.37422 22.4383 6.4H28.8336C29.0426 9.18477 30.332 11.2 32 11.2C32.4418 11.2 32.8 10.8418 32.8 10.4C32.8 9.9582 32.4418 9.6 32 9.6C31.4223 9.6 30.616 8.37422 30.4383 6.4H38.4V14.4H1.6V6.4ZM38.4 46.4H1.6V16H38.4V46.4ZM40 43.2V13.3602L46.2168 43.2H40Z" fill="#FA8C16"/>
<path d="M17.6 28.8H14.4C13.9582 28.8 13.6 29.1583 13.6 29.6V32.8C13.6 33.2418 13.9582 33.6 14.4 33.6H17.6C18.0418 33.6 18.4 33.2418 18.4 32.8V29.6C18.4 29.1583 18.0418 28.8 17.6 28.8ZM16.8 32H15.2V30.4H16.8V32Z" fill="#FA8C16"/>
<path d="M25.6 28.8H22.4C21.9582 28.8 21.6 29.1583 21.6 29.6V32.8C21.6 33.2418 21.9582 33.6 22.4 33.6H25.6C26.0418 33.6 26.4 33.2418 26.4 32.8V29.6C26.4 29.1583 26.0418 28.8 25.6 28.8ZM24.8 32H23.2V30.4H24.8V32Z" fill="#FA8C16"/>
<path d="M9.60001 28.8H6.40001C5.95821 28.8 5.60001 29.1583 5.60001 29.6V32.8C5.60001 33.2418 5.95821 33.6 6.40001 33.6H9.60001C10.0418 33.6 10.4 33.2418 10.4 32.8V29.6C10.4 29.1583 10.0418 28.8 9.60001 28.8ZM8.80001 32H7.20001V30.4H8.80001V32Z" fill="#FA8C16"/>
<path d="M17.6 36.8H14.4C13.9582 36.8 13.6 37.1583 13.6 37.6V40.8C13.6 41.2418 13.9582 41.6 14.4 41.6H17.6C18.0418 41.6 18.4 41.2418 18.4 40.8V37.6C18.4 37.1583 18.0418 36.8 17.6 36.8ZM16.8 40H15.2V38.4H16.8V40Z" fill="#FA8C16"/>
<path d="M25.6 36.8H22.4C21.9582 36.8 21.6 37.1583 21.6 37.6V40.8C21.6 41.2418 21.9582 41.6 22.4 41.6H25.6C26.0418 41.6 26.4 41.2418 26.4 40.8V37.6C26.4 37.1583 26.0418 36.8 25.6 36.8ZM24.8 40H23.2V38.4H24.8V40Z" fill="#FA8C16"/>
<path d="M9.60001 36.8H6.40001C5.95821 36.8 5.60001 37.1583 5.60001 37.6V40.8C5.60001 41.2418 5.95821 41.6 6.40001 41.6H9.60001C10.0418 41.6 10.4 41.2418 10.4 40.8V37.6C10.4 37.1583 10.0418 36.8 9.60001 36.8ZM8.80001 40H7.20001V38.4H8.80001V40Z" fill="#FA8C16"/>
<path d="M17.6 20.8H14.4C13.9582 20.8 13.6 21.1583 13.6 21.6V24.8C13.6 25.2418 13.9582 25.6 14.4 25.6H17.6C18.0418 25.6 18.4 25.2418 18.4 24.8V21.6C18.4 21.1583 18.0418 20.8 17.6 20.8ZM16.8 24H15.2V22.4H16.8V24Z" fill="#FA8C16"/>
<path d="M25.6 20.8H22.4C21.9582 20.8 21.6 21.1583 21.6 21.6V24.8C21.6 25.2418 21.9582 25.6 22.4 25.6H25.6C26.0418 25.6 26.4 25.2418 26.4 24.8V21.6C26.4 21.1583 26.0418 20.8 25.6 20.8ZM24.8 24H23.2V22.4H24.8V24Z" fill="#FA8C16"/>
<path d="M33.6 28.8H30.4C29.9582 28.8 29.6 29.1583 29.6 29.6V32.8C29.6 33.2418 29.9582 33.6 30.4 33.6H33.6C34.0418 33.6 34.4 33.2418 34.4 32.8V29.6C34.4 29.1583 34.0418 28.8 33.6 28.8ZM32.8 32H31.2V30.4H32.8V32Z" fill="#FA8C16"/>
<path d="M33.6 36.8H30.4C29.9582 36.8 29.6 37.1583 29.6 37.6V40.8C29.6 41.2418 29.9582 41.6 30.4 41.6H33.6C34.0418 41.6 34.4 41.2418 34.4 40.8V37.6C34.4 37.1583 34.0418 36.8 33.6 36.8ZM32.8 40H31.2V38.4H32.8V40Z" fill="#FA8C16"/>
<path d="M33.6 20.8H30.4C29.9582 20.8 29.6 21.1583 29.6 21.6V24.8C29.6 25.2418 29.9582 25.6 30.4 25.6H33.6C34.0418 25.6 34.4 25.2418 34.4 24.8V21.6C34.4 21.1583 34.0418 20.8 33.6 20.8ZM32.8 24H31.2V22.4H32.8V24Z" fill="#FA8C16"/>
<path d="M9.60001 20.8H6.40001C5.95821 20.8 5.60001 21.1583 5.60001 21.6V24.8C5.60001 25.2418 5.95821 25.6 6.40001 25.6H9.60001C10.0418 25.6 10.4 25.2418 10.4 24.8V21.6C10.4 21.1583 10.0418 20.8 9.60001 20.8ZM8.80001 24H7.20001V22.4H8.80001V24Z" fill="#FA8C16"/>
</svg>
