<svg width="48" height="48" viewBox="0 0 48 48" fill="none" xmlns="http://www.w3.org/2000/svg">
<g clip-path="url(#clip0)">
<path d="M40.8091 42.848L29.9167 25.4004V10.76H30.8967C31.3585 10.76 31.7328 10.3856 31.7328 9.9238V4.43699C31.7328 3.97517 31.3585 3.60083 30.8967 3.60083H17.792C17.3302 3.60083 16.9559 3.97517 16.9559 4.43699V9.9238C16.9559 10.3856 17.3302 10.76 17.792 10.76H18.7721V14.2471C18.7721 14.7089 19.1464 15.0832 19.6082 15.0832C20.0701 15.0832 20.4444 14.7089 20.4444 14.2471V10.76H26.0705C26.5323 10.76 26.9067 10.3856 26.9067 9.9238C26.9067 9.46199 26.5323 9.08764 26.0705 9.08764H18.6283V5.27314H30.0605V9.08774H29.0805C28.6186 9.08774 28.2443 9.46208 28.2443 9.92389V25.64C28.2443 25.7966 28.2884 25.95 28.3711 26.0828L38.592 42.4549H35.7135C35.2516 42.4549 34.8773 42.8292 34.8773 43.291C34.8773 43.7528 35.2516 44.1272 35.7135 44.1272H39.5722C39.711 44.5638 39.6664 45.0371 39.435 45.4544C39.1316 46.0013 38.5771 46.3278 37.9518 46.3278H10.7369C10.1116 46.3278 9.55702 46.0012 9.25374 45.4544C9.02227 45.037 8.97783 44.5638 9.11649 44.1272H32.4249C32.8867 44.1272 33.2611 43.7528 33.2611 43.291C33.2611 42.8292 32.8867 42.4549 32.4249 42.4549H10.0966L20.0719 26.4763H26.2379C26.6997 26.4763 27.074 26.102 27.074 25.6401C27.074 25.1783 26.6997 24.804 26.2379 24.804H20.4444V17.0344C20.4444 16.5725 20.0701 16.1982 19.6082 16.1982C19.1464 16.1982 18.7721 16.5725 18.7721 17.0344V25.4005L7.87983 42.848C7.22208 43.9016 7.18899 45.179 7.79143 46.2653C8.39377 47.3515 9.49486 48 10.737 48H37.9519C39.194 48 40.2951 47.3516 40.8975 46.2652C41.4998 45.179 41.4668 43.9016 40.8091 42.848Z" fill="#FA8C16"/>
<path d="M22.8933 29.0181H20.3851C19.9233 29.0181 19.549 29.3924 19.549 29.8542C19.549 30.316 19.9233 30.6904 20.3851 30.6904H22.8934C23.355 30.6904 23.7295 30.316 23.7295 29.8542C23.7295 29.3924 23.355 29.0181 22.8933 29.0181Z" fill="#FA8C16"/>
<path d="M21.0539 32.1953H18.5456C18.0838 32.1953 17.7095 32.5697 17.7095 33.0315C17.7095 33.4933 18.0838 33.8676 18.5456 33.8676H21.0539C21.5157 33.8676 21.8901 33.4933 21.8901 33.0315C21.8901 32.5697 21.5157 32.1953 21.0539 32.1953Z" fill="#FA8C16"/>
<path d="M19.2146 35.3724H16.7064C16.2445 35.3724 15.8702 35.7468 15.8702 36.2086C15.8702 36.6704 16.2445 37.0448 16.7064 37.0448H19.2146C19.6764 37.0448 20.0508 36.6704 20.0508 36.2086C20.0508 35.7468 19.6764 35.3724 19.2146 35.3724Z" fill="#FA8C16"/>
<path d="M37.3845 22.2552C35.4251 22.2552 33.831 23.8493 33.831 25.8088C33.831 27.7682 35.4251 29.3623 37.3845 29.3623C39.3439 29.3623 40.938 27.7681 40.938 25.8088C40.938 23.8494 39.3438 22.2552 37.3845 22.2552ZM37.3845 27.6899C36.3472 27.6899 35.5033 26.846 35.5033 25.8088C35.5033 24.7715 36.3472 23.9276 37.3845 23.9276C38.4217 23.9276 39.2657 24.7714 39.2657 25.8088C39.2657 26.8461 38.4217 27.6899 37.3845 27.6899Z" fill="#FA8C16"/>
<path d="M13.5923 11.0421C11.8524 11.0421 10.4367 12.4577 10.4367 14.1975C10.4367 15.9374 11.8523 17.353 13.5923 17.353C15.3323 17.353 16.7477 15.9375 16.7477 14.1975C16.7478 12.4576 15.3323 11.0421 13.5923 11.0421ZM13.5923 15.6808C12.7744 15.6808 12.109 15.0154 12.109 14.1975C12.109 13.3797 12.7744 12.7142 13.5923 12.7142C14.4102 12.7142 15.0755 13.3797 15.0755 14.1975C15.0755 15.0154 14.4102 15.6808 13.5923 15.6808Z" fill="#FA8C16"/>
<path d="M9.17079 26.5527C7.7936 26.5527 6.67319 27.6731 6.67319 29.0503C6.67319 30.4275 7.7936 31.5479 9.17079 31.5479C10.548 31.5479 11.6684 30.4275 11.6684 29.0503C11.6684 27.6731 10.548 26.5527 9.17079 26.5527ZM9.17079 29.8757C8.71573 29.8757 8.34551 29.5055 8.34551 29.0504C8.34551 28.5954 8.71573 28.2251 9.17079 28.2251C9.62585 28.2251 9.99607 28.5954 9.99607 29.0504C9.99607 29.5055 9.62585 29.8757 9.17079 29.8757Z" fill="#FA8C16"/>
<path d="M15.5745 23.0775C16.0363 23.0775 16.4107 22.7031 16.4107 22.2413C16.4107 21.7795 16.0363 21.4052 15.5745 21.4052C15.1127 21.4052 14.7384 21.7795 14.7384 22.2413C14.7384 22.7031 15.1127 23.0775 15.5745 23.0775Z" fill="#FA8C16"/>
<path d="M27.8937 1.67231C28.3555 1.67231 28.7299 1.29795 28.7299 0.836156C28.7299 0.37436 28.3555 0 27.8937 0C27.4319 0 27.0575 0.37436 27.0575 0.836156C27.0575 1.29795 27.4319 1.67231 27.8937 1.67231Z" fill="#FA8C16"/>
<path d="M33.7154 16.0595C34.1772 16.0595 34.5515 15.6852 34.5515 15.2234C34.5515 14.7616 34.1772 14.3872 33.7154 14.3872C33.2536 14.3872 32.8792 14.7616 32.8792 15.2234C32.8792 15.6852 33.2536 16.0595 33.7154 16.0595Z" fill="#FA8C16"/>
</g>
<defs>
<clipPath id="clip0">
<rect width="48" height="48" fill="white"/>
</clipPath>
</defs>
</svg>
