<svg xmlns="http://www.w3.org/2000/svg" width="64" height="64" viewBox="0 0 48 48"><path d="M24.188 31.547c0 .207.16.375.351.375h8.672c.191 0 .352-.168.352-.375v-2.25c0-.207-.16-.375-.352-.375h-8.672c-.191 0-.352.168-.352.375zm-9.137.285l9-7.547a.373.373 0 000-.574l-9-7.543a.37.37 0 00-.614.285v2.938a.36.36 0 00.137.289L19.72 24l-5.145 4.32a.379.379 0 00-.136.29v2.937c0 .32.37.492.613.285zM41.25 5.25H6.75a1.5 1.5 0 00-1.5 1.5v34.5a1.5 1.5 0 001.5 1.5h34.5a1.5 1.5 0 001.5-1.5V6.75a1.5 1.5 0 00-1.5-1.5zm-1.875 34.125H8.625V8.625h30.75zm0 0" fill="#fa8c16"/></svg>