<svg width="294" height="54" viewBox="0 0 294 54" fill="none" xmlns="http://www.w3.org/2000/svg">
<path fill-rule="evenodd" clip-rule="evenodd" d="M45.5819 48.4971C44.4236 42.3673 41.7486 36.3489 37.9398 31.2888C41.6128 23.9749 39.5772 14.2134 34.3783 8.17666C27.7781 0.511589 16.0267 0.288823 6.17339 0.102039C4.74558 0.074973 3.35763 0.0486623 2.03099 0.000571718C1.43739 -0.0207917 1.11083 0.560598 1.14898 1.06722C0.366166 1.1954 -0.337301 2.03315 0.173895 2.93804C3.83467 9.4081 7.18415 15.8202 9.68062 22.8442C9.85437 23.3328 10.0259 23.8257 10.1982 24.3204L10.1982 24.3204C11.696 28.6226 13.2444 33.0701 16.7138 36.2055C22.813 41.7172 32.0649 39.8708 36.7008 33.3763C36.8017 33.5137 36.9041 33.6479 37.0065 33.7821L37.0065 33.7821C37.1952 34.0294 37.3839 34.2766 37.5629 34.5437C42.4417 41.8321 42.8024 44.3975 43.9265 52.3915L44.0177 53.0396C44.0424 54.293 45.9754 54.2871 46.2905 53.2112C47.3841 50.7705 48.3538 47.4832 49.3152 44.2242L49.3152 44.2241C50.362 40.6754 51.3989 37.1602 52.5752 34.8081C52.6692 34.8268 52.7649 34.8363 52.8608 34.8364C53.1203 34.8362 53.3752 34.7674 53.5996 34.637C53.824 34.5066 54.0099 34.3192 54.1386 34.0938L64.1125 37.5812C64.1807 37.9132 64.3613 38.2114 64.6238 38.4257C64.8863 38.6401 65.2147 38.7573 65.5536 38.7577C65.747 38.7577 65.9386 38.7196 66.1173 38.6456C66.296 38.5716 66.4584 38.4631 66.5952 38.3263C66.732 38.1895 66.8405 38.0271 66.9145 37.8484C66.9885 37.6697 67.0266 37.4781 67.0266 37.2847C67.026 37.1279 67.0004 36.9722 66.9507 36.8236L75.1481 28.9458C75.3674 29.0682 75.6142 29.1326 75.8653 29.1327C76.256 29.1328 76.6306 28.9776 76.9069 28.7014C77.1831 28.4251 77.3383 28.0505 77.3384 27.6599C77.338 27.4309 77.2843 27.2053 77.1815 27.0007C77.0787 26.7962 76.9296 26.6184 76.7461 26.4816L79.8607 16.2919C79.9067 16.2964 79.9528 16.2987 79.999 16.2988C80.1924 16.2988 80.384 16.2607 80.5627 16.1867C80.7414 16.1126 80.9038 16.0041 81.0406 15.8674C81.1774 15.7306 81.2859 15.5682 81.3599 15.3895C81.4339 15.2107 81.4721 15.0192 81.472 14.8258C81.4719 14.5833 81.4119 14.3447 81.2973 14.131C81.1828 13.9173 81.0173 13.7352 80.8156 13.6009L83.4889 7.75332C83.5066 7.75452 83.5244 7.75542 83.5422 7.75598C83.7356 7.75599 83.9271 7.71788 84.1059 7.64385C84.2846 7.56983 84.447 7.46134 84.5838 7.32455C84.7206 7.18776 84.829 7.02536 84.9031 6.84664C84.9771 6.66792 85.0152 6.47638 85.0152 6.28293C85.0147 5.91069 84.8734 5.5524 84.6195 5.28015V5.27956C84.4818 5.13158 84.3152 5.01353 84.1299 4.93273C83.9446 4.85193 83.7447 4.81013 83.5426 4.80992C83.2588 4.81018 82.9811 4.89243 82.7429 5.04678C82.5047 5.20113 82.3162 5.421 82.2 5.67995L70.576 5.15733C70.4658 4.88608 70.2772 4.65386 70.0343 4.4903C69.7915 4.32673 69.5054 4.23925 69.2126 4.23904L69.2121 4.23907C68.837 4.23951 68.4762 4.38305 68.2033 4.6404C67.9304 4.89775 67.766 5.24954 67.7435 5.62398L57.1648 9.37294C57.0271 9.22304 56.8597 9.10332 56.6734 9.02133C56.4871 8.93934 56.2858 8.89688 56.0822 8.8966C55.6916 8.89663 55.3169 9.05183 55.0407 9.32808C54.7645 9.60433 54.6093 9.97898 54.6094 10.3696C54.6099 10.7229 54.7375 11.0642 54.9688 11.3313L48.665 20.8139C48.5713 20.7953 48.476 20.7859 48.3805 20.7858C48.187 20.7858 47.9955 20.8239 47.8167 20.8979C47.638 20.9719 47.4756 21.0804 47.3388 21.2172C47.2021 21.354 47.0936 21.5164 47.0195 21.6951C46.9455 21.8738 46.9074 22.0654 46.9074 22.2588C46.9074 22.4523 46.9455 22.6438 47.0195 22.8225C47.0936 23.0013 47.2021 23.1636 47.3388 23.3004C47.4756 23.4372 47.638 23.5457 47.8167 23.6197C47.9954 23.6937 48.187 23.7318 48.3805 23.7318C48.4344 23.7313 48.4883 23.7277 48.5418 23.7212L52.0745 32.1184C51.8643 32.2511 51.6911 32.4349 51.571 32.6526C51.451 32.8703 51.388 33.1148 51.3879 33.3634C51.3879 33.6034 51.4465 33.8397 51.5587 34.0519C51.6709 34.264 51.8332 34.4456 52.0315 34.5807C52 34.6388 51.9387 34.7473 51.8519 34.9008L51.8516 34.9012C50.9182 36.552 47.0449 43.4017 45.673 48.7658C45.6438 48.663 45.6134 48.5728 45.5819 48.4971ZM33.4978 33.1429C28.308 38.6516 20.1121 37.234 16.0164 31.2781C14.2738 28.7438 13.2709 25.7483 12.2834 22.7985C11.9253 21.7289 11.5692 20.6654 11.1806 19.632C8.84745 13.429 5.69634 7.63342 2.46589 1.86224C4.72979 2.14105 7.07405 2.30174 9.43727 2.46372C14.9509 2.84165 20.5677 3.22665 25.5079 5.13542C34.1784 8.48643 39.9984 20.221 36.1484 29.0853C31.8177 24.1229 26.3059 20.3477 19.993 18.7805C19.4986 18.6585 19.2026 19.3375 19.6467 19.6046C25.4239 23.0899 30.6946 26.2852 34.9963 31.2354C34.5583 31.8962 34.07 32.5355 33.4978 33.1429ZM70.684 5.75216L82.0702 6.26396V6.28286C82.0702 6.46643 82.1045 6.64837 82.1714 6.81933L76.0915 10.6424L70.6255 6.12682C70.661 6.00498 70.6807 5.87904 70.684 5.75216ZM67.8301 6.21815C67.902 6.41417 68.0148 6.59267 68.161 6.7418C68.3071 6.89093 68.4833 7.00729 68.6778 7.08316L67.2953 14.9305C67.2034 14.9125 67.11 14.9034 67.0164 14.9032C66.8154 14.9036 66.6166 14.9451 66.4322 15.0252C66.2478 15.1052 66.0817 15.2222 65.9442 15.3689L57.5495 10.4849C57.5529 10.4465 57.5549 10.4081 57.5554 10.3696C57.5548 10.2059 57.5269 10.0434 57.4728 9.88886L67.8301 6.21815ZM70.3417 6.65704L75.5656 10.9726L71.9808 13.2266L70.05 6.92133C70.1587 6.84669 70.2568 6.75778 70.3417 6.65704ZM69.5055 7.15395L71.4643 13.5515L68.2503 15.5725C68.1456 15.4115 68.0103 15.2726 67.8522 15.1636L69.2582 7.18333C69.3413 7.18053 69.424 7.1707 69.5055 7.15395ZM82.4908 7.3141C82.6111 7.43608 82.7518 7.53613 82.9066 7.60974L80.2691 13.3789C80.18 13.3619 80.0896 13.3532 79.999 13.3528C79.8233 13.3531 79.6492 13.3849 79.4847 13.4465L76.5691 11.0378L82.4908 7.3141ZM57.379 11.0673L65.635 15.8702C65.5751 16.0322 65.5442 16.2034 65.5436 16.3761C65.5442 16.4872 65.5573 16.598 65.5828 16.7062L59.3597 18.5194L56.9994 11.5221C57.1554 11.3977 57.2846 11.243 57.379 11.0673ZM76.044 11.368L78.9632 13.7794C78.8248 13.9163 78.7149 14.0792 78.6398 14.2588C78.5648 14.4384 78.5261 14.6311 78.5259 14.8257C78.5266 15.186 78.6593 15.5336 78.8989 15.8026L74.7875 22.3926L72.1596 13.8106L76.044 11.368ZM55.4369 11.6917C55.5035 11.7247 55.5725 11.7527 55.6433 11.7754L54.4984 19.936L49.5575 21.3757C49.4626 21.2486 49.3478 21.1376 49.2175 21.0472L55.4369 11.6917ZM56.4686 11.7908L58.7937 18.6845L55.119 19.7551L56.2307 11.8335C56.311 11.8258 56.3906 11.8115 56.4686 11.7908ZM71.643 14.1353L74.3742 23.0552L73.7008 24.1344L68.2369 17.2002C68.4014 16.9568 68.4893 16.6698 68.4895 16.3761C68.4893 16.2941 68.4823 16.2123 68.4685 16.1315L71.643 14.1353ZM79.2023 16.4297L76.2074 26.2288C76.123 26.2087 76.0371 26.1961 75.9506 26.1911L75.0162 23.1395L79.2023 16.4297ZM65.831 17.2475C65.9012 17.3438 65.9828 17.4312 66.0741 17.5078L61.0145 23.4252L59.5482 19.0781L65.831 17.2475ZM67.8139 17.6145L73.3694 24.6657L66.291 36.0112C66.1974 35.9566 66.098 35.9125 65.9946 35.8797L67.5073 17.7633C67.6149 17.7257 67.7178 17.6758 67.8139 17.6145ZM66.6077 17.7901C66.7062 17.8184 66.8074 17.8365 66.9096 17.8438L65.4088 35.8205C65.3408 35.8272 65.2734 35.8386 65.207 35.8547L61.2337 24.0753L66.6077 17.7901ZM58.9822 19.243L60.5686 23.9466L53.6032 32.0928C53.5386 32.055 53.4711 32.0222 53.4015 31.9946L55.0294 20.3947L58.9822 19.243ZM54.4087 20.5755L52.8212 31.8919C52.7558 31.8936 52.6907 31.8997 52.6262 31.9101L49.1046 23.5396C49.3316 23.4115 49.5205 23.2254 49.6521 23.0004C49.7836 22.7754 49.8531 22.5196 49.8535 22.259C49.8529 22.1432 49.8386 22.0278 49.811 21.9154L54.4087 20.5755ZM74.6029 23.802L75.3425 26.2179L74.0886 24.6264L74.6029 23.802ZM60.7878 24.5968L64.6703 36.1077C64.3914 36.3172 64.1958 36.6189 64.1185 36.959L54.323 33.5339C54.3299 33.4773 54.3336 33.4204 54.3339 33.3634C54.3333 33.0473 54.2311 32.7398 54.0423 32.4863L60.7878 24.5968ZM73.757 25.1575L74.8727 26.5736C74.7217 26.7114 74.601 26.8792 74.5183 27.0662C74.4356 27.2532 74.3927 27.4554 74.3924 27.6599C74.3927 27.9855 74.501 28.3018 74.7001 28.5594L67.0455 35.9151L73.757 25.1575ZM142.343 40.2702C142.02 40.3279 141.536 40.3999 140.889 40.4863C140.272 40.6016 139.641 40.6592 138.994 40.6592C138.348 40.6592 137.76 40.616 137.232 40.5296C136.732 40.4431 136.306 40.2702 135.954 40.0109C135.601 39.7516 135.322 39.4058 135.116 38.9736C134.94 38.5126 134.852 37.922 134.852 37.2016V12.134C135.175 12.0764 135.645 12.0043 136.262 11.9179C136.908 11.8026 137.555 11.745 138.201 11.745C138.847 11.745 139.42 11.7882 139.92 11.8747C140.449 11.9611 140.889 12.134 141.242 12.3933C141.594 12.6526 141.859 13.0128 142.035 13.4738C142.241 13.906 142.343 14.4823 142.343 15.2026V40.2702ZM119.691 26.2669C120.925 26.2669 121.865 25.9932 122.511 25.4458C123.187 24.8695 123.524 24.0051 123.524 22.8526C123.524 21.7576 123.172 20.9221 122.467 20.3458C121.791 19.7407 120.792 19.4382 119.47 19.4382C119 19.4382 118.604 19.4526 118.281 19.4814C117.987 19.4814 117.678 19.5102 117.355 19.5678V26.2669H119.691ZM117.399 40.1406C117.076 40.227 116.562 40.3135 115.857 40.3999C115.181 40.4863 114.505 40.5296 113.83 40.5296C113.154 40.5296 112.552 40.4719 112.023 40.3567C111.524 40.2702 111.098 40.0974 110.745 39.838C110.393 39.5787 110.128 39.2186 109.952 38.7575C109.776 38.2965 109.687 37.6914 109.687 36.9423V16.5856C109.687 15.9806 109.849 15.5195 110.172 15.2026C110.525 14.8568 110.995 14.5831 111.582 14.3814C112.581 14.0357 113.712 13.7907 114.975 13.6467C116.268 13.4738 117.561 13.3874 118.853 13.3874C122.908 13.3874 126.007 14.2374 128.151 15.9373C130.296 17.6373 131.368 19.9424 131.368 22.8526C131.368 24.2644 131.133 25.5466 130.663 26.6991C130.223 27.8229 129.547 28.8025 128.636 29.6381C127.755 30.4449 126.624 31.0788 125.243 31.5398C123.892 31.972 122.32 32.1881 120.528 32.1881H117.399V40.1406ZM157.867 35.516C157.279 35.6025 156.736 35.6457 156.237 35.6457C155.15 35.6457 154.371 35.4728 153.901 35.1271C153.46 34.7525 153.24 34.2771 153.24 33.7008C153.24 33.1245 153.504 32.6923 154.033 32.4042C154.562 32.1161 155.238 31.9432 156.06 31.8855L159.233 31.6262V35.0838C158.939 35.2567 158.484 35.4008 157.867 35.516ZM160.203 19.1356C158.91 18.8187 157.47 18.6602 155.884 18.6602C154.856 18.6602 153.754 18.7322 152.579 18.8763C151.433 19.0204 150.434 19.2509 149.582 19.5678C148.819 19.8848 148.246 20.2738 147.864 20.7348C147.511 21.167 147.335 21.7576 147.335 22.5068C147.335 23.0831 147.467 23.6449 147.732 24.1924C147.996 24.711 148.319 25.1 148.701 25.3593C149.553 25.0136 150.508 24.7254 151.565 24.4949C152.623 24.2644 153.71 24.1492 154.826 24.1492C156.237 24.1492 157.309 24.3364 158.043 24.711C158.807 25.0568 159.189 25.6475 159.189 26.483V26.7856L153.416 27.3907C150.89 27.65 149.024 28.3127 147.82 29.3788C146.615 30.4449 146.013 31.972 146.013 33.9601C146.013 35.1415 146.248 36.1787 146.718 37.072C147.217 37.9652 147.908 38.6999 148.789 39.2762C149.7 39.8525 150.772 40.2847 152.006 40.5728C153.269 40.8609 154.679 41.005 156.237 41.005C159.703 41.005 162.391 40.4431 164.301 39.3194C164.888 38.9736 165.388 38.5703 165.799 38.1092C166.24 37.6194 166.46 36.9999 166.46 36.2508V26.5695C166.46 25.2153 166.21 24.0483 165.711 23.0687C165.211 22.0602 164.492 21.239 163.552 20.6051C162.641 19.9424 161.525 19.4526 160.203 19.1356ZM178.532 33.0957C178.532 33.8449 178.767 34.3779 179.237 34.6949C179.736 35.0118 180.427 35.1703 181.308 35.1703C181.749 35.1703 182.204 35.1415 182.674 35.0838C183.144 34.9974 183.556 34.8965 183.908 34.7813C184.172 35.0982 184.393 35.4584 184.569 35.8618C184.775 36.2364 184.878 36.6974 184.878 37.2448C184.878 38.3397 184.452 39.233 183.6 39.9245C182.777 40.616 181.308 40.9618 179.193 40.9618C176.608 40.9618 174.61 40.3855 173.2 39.233C171.819 38.0804 171.129 36.2076 171.129 33.6144V15.1162C171.452 15.0297 171.907 14.9433 172.495 14.8568C173.112 14.7416 173.758 14.684 174.434 14.684C175.726 14.684 176.725 14.9145 177.43 15.3755C178.165 15.8077 178.532 16.7441 178.532 18.1848V20.9509H184.305C184.481 21.2678 184.643 21.6712 184.789 22.161C184.966 22.622 185.054 23.1407 185.054 23.717C185.054 24.7254 184.819 25.4602 184.349 25.9212C183.908 26.3534 183.306 26.5695 182.542 26.5695H178.532V33.0957ZM195.427 40.3999C196.132 40.3135 196.646 40.227 196.969 40.1406V17.3204C196.969 16.5712 196.881 15.9662 196.705 15.5051C196.528 15.0441 196.264 14.684 195.911 14.4246C195.559 14.1653 195.118 13.9924 194.589 13.906C194.09 13.7907 193.502 13.7331 192.827 13.7331C192.18 13.7331 191.505 13.7907 190.8 13.906C190.095 13.9924 189.581 14.0645 189.257 14.1221V36.9423C189.257 37.6914 189.346 38.2965 189.522 38.7575C189.698 39.2186 189.962 39.5787 190.315 39.838C190.668 40.0974 191.093 40.2702 191.593 40.3567C192.122 40.4719 192.724 40.5296 193.4 40.5296C194.075 40.5296 194.751 40.4863 195.427 40.3999ZM208.369 14.9001C208.868 14.6119 209.617 14.3382 210.616 14.0789C211.644 13.8196 212.672 13.6899 213.701 13.6899C215.17 13.6899 216.462 13.906 217.579 14.3382C218.724 14.7416 219.459 15.3899 219.782 16.2831C220.311 17.7814 220.884 19.5246 221.501 21.5127C222.117 23.5009 222.734 25.561 223.351 27.6932C223.968 29.7966 224.57 31.8855 225.158 33.9601C225.746 36.0059 226.26 37.8211 226.7 39.4058C226.348 39.8092 225.819 40.1262 225.114 40.3567C224.409 40.616 223.572 40.7457 222.602 40.7457C221.897 40.7457 221.295 40.688 220.795 40.5728C220.325 40.4575 219.929 40.2847 219.606 40.0541C219.312 39.8236 219.062 39.5211 218.857 39.1465C218.68 38.7719 218.519 38.3397 218.372 37.8499L217.579 34.8677H209.602C209.367 35.7321 209.132 36.6254 208.897 37.5474C208.662 38.4694 208.427 39.3626 208.192 40.227C207.781 40.3711 207.34 40.4863 206.87 40.5728C206.43 40.688 205.886 40.7457 205.24 40.7457C203.742 40.7457 202.625 40.5007 201.891 40.0109C201.186 39.4923 200.833 38.7864 200.833 37.8931C200.833 37.4898 200.892 37.0864 201.009 36.683C201.127 36.2796 201.259 35.8042 201.406 35.2567C201.612 34.4788 201.891 33.5135 202.243 32.361C202.625 31.2084 203.037 29.9695 203.477 28.644C203.918 27.2898 204.388 25.9068 204.887 24.4949C205.387 23.0831 205.857 21.7576 206.297 20.5187C206.738 19.2509 207.135 18.1272 207.487 17.1475C207.869 16.1679 208.163 15.4187 208.369 14.9001ZM213.657 20.4755C213.245 21.6856 212.775 23.0398 212.246 24.5381C211.747 26.0076 211.292 27.5059 210.88 29.033H216.345C215.933 27.4771 215.507 25.9644 215.067 24.4949C214.655 22.9966 214.274 21.6568 213.921 20.4755H213.657ZM244.507 19.3085C243.155 18.8763 241.642 18.6602 239.968 18.6602C238.322 18.6602 236.795 18.8763 235.385 19.3085C234.004 19.7119 232.799 20.3458 231.771 21.2102C230.772 22.0458 229.979 23.1119 229.392 24.4085C228.833 25.7051 228.554 27.2322 228.554 28.9898C228.554 30.7762 228.819 32.3178 229.348 33.6144C229.906 34.911 230.625 35.9771 231.507 36.8126C232.417 37.6194 233.46 38.2245 234.636 38.6279C235.84 39.0025 237.103 39.1897 238.425 39.1897C240.159 39.1897 241.627 38.9304 242.832 38.4118V39.1033C242.832 40.2558 242.362 41.0914 241.422 41.6101C240.482 42.1287 239.218 42.388 237.632 42.388C236.486 42.388 235.37 42.2296 234.283 41.9126C233.225 41.5957 232.271 41.2067 231.419 40.7457C231.066 41.005 230.743 41.3796 230.449 41.8694C230.185 42.388 230.053 42.9787 230.053 43.6414C230.053 45.2261 230.816 46.3643 232.344 47.0558C233.872 47.7761 235.972 48.1363 238.646 48.1363C240.203 48.1363 241.657 47.9634 243.008 47.6177C244.389 47.2719 245.579 46.7244 246.578 45.9753C247.606 45.255 248.414 44.3329 249.001 43.2092C249.589 42.1143 249.883 40.8033 249.883 39.2762V24.1492C249.883 23.3712 249.706 22.7373 249.354 22.2475C249.031 21.7576 248.575 21.311 247.988 20.9077C247.048 20.2449 245.887 19.7119 244.507 19.3085ZM241.774 24.5814C242.186 24.6966 242.494 24.8119 242.7 24.9271V32.8796C241.995 33.4271 241.04 33.7008 239.835 33.7008C238.719 33.7008 237.794 33.3406 237.059 32.6203C236.354 31.8711 236.002 30.661 236.002 28.9898C236.002 27.5203 236.354 26.3966 237.059 25.6186C237.794 24.8119 238.881 24.4085 240.32 24.4085C240.908 24.4085 241.392 24.4661 241.774 24.5814ZM262.018 40.2702C261.724 40.3567 261.254 40.4431 260.608 40.5296C259.991 40.616 259.345 40.6592 258.669 40.6592C258.022 40.6592 257.435 40.616 256.906 40.5296C256.407 40.4431 255.981 40.2702 255.628 40.0109C255.276 39.7516 254.997 39.4058 254.791 38.9736C254.615 38.5126 254.527 37.922 254.527 37.2016V24.2356C254.527 23.5729 254.644 23.011 254.879 22.55C255.143 22.0602 255.511 21.628 255.981 21.2534C256.451 20.8788 257.024 20.5475 257.699 20.2594C258.404 19.9424 259.154 19.6687 259.947 19.4382C260.74 19.2077 261.563 19.0348 262.414 18.9195C263.266 18.7755 264.118 18.7034 264.97 18.7034C266.381 18.7034 267.497 18.9772 268.319 19.5246C269.142 20.0433 269.553 20.9077 269.553 22.1178C269.553 22.5212 269.495 22.9246 269.377 23.328C269.26 23.7025 269.113 24.0483 268.936 24.3653C268.319 24.3653 267.688 24.3941 267.042 24.4517C266.395 24.5093 265.764 24.5958 265.147 24.711C264.53 24.8263 263.942 24.9559 263.384 25.1C262.855 25.2153 262.4 25.3593 262.018 25.5322V40.2702ZM293.155 34.6084C293.713 33.1966 293.992 31.5974 293.992 29.811C293.992 28.1398 293.713 26.6127 293.155 25.2297C292.596 23.8466 291.803 22.6797 290.775 21.7288C289.776 20.7492 288.572 20 287.161 19.4814C285.751 18.9339 284.18 18.6602 282.446 18.6602C280.713 18.6602 279.141 18.9195 277.731 19.4382C276.321 19.9568 275.102 20.706 274.074 21.6856C273.075 22.6365 272.296 23.8034 271.738 25.1864C271.18 26.5695 270.901 28.111 270.901 29.811C270.901 31.5398 271.18 33.0957 271.738 34.4788C272.296 35.8618 273.075 37.0431 274.074 38.0228C275.102 38.9736 276.321 39.7084 277.731 40.227C279.141 40.7457 280.713 41.005 282.446 41.005C284.18 41.005 285.751 40.7601 287.161 40.2702C288.572 39.7804 289.776 39.0601 290.775 38.1092C291.803 37.1584 292.596 35.9915 293.155 34.6084ZM279.582 33.8737C278.906 32.9228 278.568 31.5686 278.568 29.811C278.568 28.0822 278.906 26.7568 279.582 25.8347C280.258 24.8839 281.212 24.4085 282.446 24.4085C283.68 24.4085 284.635 24.8839 285.311 25.8347C285.986 26.7568 286.324 28.0822 286.324 29.811C286.324 31.5398 285.986 32.8796 285.311 33.8305C284.664 34.7813 283.724 35.2567 282.49 35.2567C281.257 35.2567 280.287 34.7957 279.582 33.8737Z" fill="url(#paint0_linear)"/>
<defs>
<linearGradient id="paint0_linear" x1="8.43419" y1="27" x2="293.992" y2="27" gradientUnits="userSpaceOnUse">
<stop offset="0.524014" stop-color="#308A0A"/>
<stop offset="0.632906" stop-color="#FF8F00"/>
<stop offset="0.752515" stop-color="#FF8F00"/>
<stop offset="0.860685" stop-color="#308A0A"/>
</linearGradient>
</defs>
</svg>
