<svg width="156" height="169" viewBox="0 0 156 169" fill="none" xmlns="http://www.w3.org/2000/svg">
<path d="M24.0194 39.8868L15.9155 52.5H140.53L131.503 39.8273C131.222 39.4322 130.767 39.1976 130.282 39.1976H25.2814C24.7709 39.1976 24.2954 39.4572 24.0194 39.8868Z" fill="#434343" stroke="#262626"/>
<rect x="-0.618019" y="0.352005" width="37.9354" height="40.483" rx="3.5" transform="matrix(-0.965926 -0.258819 -0.270112 0.962829 131.694 29.9303)" fill="#FFD666" stroke="#262626"/>
<line x1="0.5" y1="-0.5" x2="7.17464" y2="-0.5" transform="matrix(-0.00792814 0.979484 -1.01957 -0.032153 130.257 12.6352)" stroke="#262626" stroke-linecap="round" stroke-linejoin="round"/>
<line x1="0.5" y1="-0.5" x2="7.08428" y2="-0.5" transform="matrix(0.735204 -0.677846 0.707107 0.707107 139.093 24.6105)" stroke="#262626" stroke-linecap="round" stroke-linejoin="round"/>
<line x1="0.5" y1="-0.5" x2="7.17464" y2="-0.5" transform="matrix(1.01957 0.032153 -0.00792814 0.979484 142.057 34.5392)" stroke="#262626" stroke-linecap="round" stroke-linejoin="round"/>
<path d="M65.6172 14.7528C66.2441 13.5018 67.5559 12.7444 68.9528 12.827L88.5892 13.9878C90.2007 14.0831 91.538 15.2682 91.8263 16.8565L95.0612 34.674C95.3252 36.1281 94.6474 37.5914 93.3675 38.3303L75.4963 48.6482C74.2164 49.3872 72.6103 49.2426 71.483 48.2869L57.67 36.5767C56.4387 35.5328 56.081 33.7821 56.8043 32.3389L65.6172 14.7528Z" fill="#69C0FF" stroke="#262626"/>
<rect x="0.61959" y="0.357524" width="39" height="39" rx="19.5" transform="matrix(0.968833 -0.247715 0.270346 0.962763 57.9227 40.0753)" fill="#95DE64" stroke="#262626"/>
<path d="M30.3589 23.6957C30.4697 21.1368 33.2014 19.5597 35.4729 20.7432L73.1983 40.399C75.6478 41.6753 75.7231 45.1531 73.3311 46.5341L33.7654 69.3774C31.3734 70.7584 28.3992 68.9543 28.5186 66.1949L30.3589 23.6957Z" fill="#B37FEB" stroke="#262626"/>
<path d="M5.71486 147.045L15.2239 52.6774H141.455L150.964 147.045C152.121 158.529 143.105 168.5 131.562 168.5H25.1166C13.5741 168.5 4.55762 158.529 5.71486 147.045Z" fill="#F5F5F5" stroke="#262626"/>
<path d="M64.8906 69.0268C64.8906 71.8307 62.5015 74.1432 59.5047 74.1432C56.5078 74.1432 54.1188 71.8307 54.1188 69.0268C54.1188 66.2228 56.5078 63.9103 59.5047 63.9103C62.5015 63.9103 64.8906 66.2228 64.8906 69.0268Z" fill="#8C8C8C" stroke="#262626"/>
<path d="M102.56 69.0268C102.56 71.8307 100.171 74.1432 97.1743 74.1432C94.1775 74.1432 91.7885 71.8307 91.7885 69.0268C91.7885 66.2228 94.1775 63.9103 97.1743 63.9103C100.171 63.9103 102.56 66.2228 102.56 69.0268Z" fill="#8C8C8C" stroke="#262626"/>
<path d="M59.5048 69.0268V83.6296C59.5048 93.5557 67.9374 101.602 78.3396 101.602C88.7418 101.602 97.1745 93.5557 97.1745 83.6296V69.0268" stroke="#262626"/>
</svg>
