<svg width="48" height="48" viewBox="0 0 48 48" fill="none" xmlns="http://www.w3.org/2000/svg">
<path d="M24 48C37.2548 48 48 37.2548 48 24C48 10.7452 37.2548 0 24 0C10.7452 0 0 10.7452 0 24C0 37.2548 10.7452 48 24 48Z" fill="#E1E6E9"/>
<mask id="path-2-inside-1" fill="white">
<path fill-rule="evenodd" clip-rule="evenodd" d="M38.5784 6.11396C37.0163 7.67605 37.0163 10.2087 38.5784 11.7708C40.1405 13.3329 42.6732 13.3329 44.2353 11.7708L45.4858 10.5203C46.3356 9.67048 47.75 10.0481 47.75 11.25C47.75 15.9444 43.9444 19.75 39.25 19.75C38.907 19.75 38.5687 19.7297 38.2364 19.6902C37.5328 19.6066 36.8059 19.7868 36.3049 20.2878L20.2878 36.3049C19.7868 36.8059 19.6066 37.5328 19.6902 38.2364C19.7297 38.5687 19.75 38.907 19.75 39.25C19.75 43.9444 15.9444 47.75 11.25 47.75C10.1755 47.75 9.82089 46.4867 10.5806 45.727L11.9216 44.386C13.4837 42.8239 13.4837 40.2913 11.9216 38.7292C10.3595 37.1671 7.82681 37.1671 6.26472 38.7292L5.01423 39.9797C4.16439 40.8295 2.75 40.4519 2.75 39.25C2.75 34.5556 6.55558 30.75 11.25 30.75C11.5792 30.75 11.904 30.7687 12.2235 30.8051C12.9234 30.8849 13.6452 30.7038 14.1433 30.2057L30.2057 14.1433C30.7038 13.6452 30.8849 12.9234 30.8051 12.2235C30.7687 11.904 30.75 11.5792 30.75 11.25C30.75 6.55558 34.5556 2.75 39.25 2.75C40.3245 2.75 40.6791 4.01327 39.9193 4.77303L38.5784 6.11396Z"/>
</mask>
<path fill-rule="evenodd" clip-rule="evenodd" d="M38.5784 6.11396C37.0163 7.67605 37.0163 10.2087 38.5784 11.7708C40.1405 13.3329 42.6732 13.3329 44.2353 11.7708L45.4858 10.5203C46.3356 9.67048 47.75 10.0481 47.75 11.25C47.75 15.9444 43.9444 19.75 39.25 19.75C38.907 19.75 38.5687 19.7297 38.2364 19.6902C37.5328 19.6066 36.8059 19.7868 36.3049 20.2878L20.2878 36.3049C19.7868 36.8059 19.6066 37.5328 19.6902 38.2364C19.7297 38.5687 19.75 38.907 19.75 39.25C19.75 43.9444 15.9444 47.75 11.25 47.75C10.1755 47.75 9.82089 46.4867 10.5806 45.727L11.9216 44.386C13.4837 42.8239 13.4837 40.2913 11.9216 38.7292C10.3595 37.1671 7.82681 37.1671 6.26472 38.7292L5.01423 39.9797C4.16439 40.8295 2.75 40.4519 2.75 39.25C2.75 34.5556 6.55558 30.75 11.25 30.75C11.5792 30.75 11.904 30.7687 12.2235 30.8051C12.9234 30.8849 13.6452 30.7038 14.1433 30.2057L30.2057 14.1433C30.7038 13.6452 30.8849 12.9234 30.8051 12.2235C30.7687 11.904 30.75 11.5792 30.75 11.25C30.75 6.55558 34.5556 2.75 39.25 2.75C40.3245 2.75 40.6791 4.01327 39.9193 4.77303L38.5784 6.11396Z" fill="white"/>
<path d="M38.5784 11.7708L37.8713 12.4779V12.4779L38.5784 11.7708ZM38.5784 6.11396L37.8713 5.40685V5.40685L38.5784 6.11396ZM44.2353 11.7708L44.9424 12.4779V12.4779L44.2353 11.7708ZM11.9216 44.386L11.2145 43.6789H11.2145L11.9216 44.386ZM11.9216 38.7292L11.2145 39.4363L11.9216 38.7292ZM6.26472 38.7292L6.97182 39.4363H6.97183L6.26472 38.7292ZM11.25 30.75V29.75V30.75ZM45.4858 10.5203L44.7787 9.81322L45.4858 10.5203ZM10.5806 45.727L11.2878 46.4341L10.5806 45.727ZM30.2057 14.1433L29.4986 13.4362L30.2057 14.1433ZM30.8051 12.2235L29.8116 12.3368L30.8051 12.2235ZM19.6902 38.2364L18.6972 38.3544L19.6902 38.2364ZM14.1433 30.2057L14.8504 30.9128L14.1433 30.2057ZM38.2364 19.6902L38.3544 18.6972L38.2364 19.6902ZM39.2855 11.0637C38.114 9.89213 38.114 7.99263 39.2855 6.82106L37.8713 5.40685C35.9187 7.35947 35.9187 10.5253 37.8713 12.4779L39.2855 11.0637ZM43.5282 11.0637C42.3566 12.2353 40.4571 12.2353 39.2855 11.0637L37.8713 12.4779C39.8239 14.4305 42.9898 14.4305 44.9424 12.4779L43.5282 11.0637ZM44.7787 9.81322L43.5282 11.0637L44.9424 12.4779L46.1929 11.2274L44.7787 9.81322ZM39.25 20.75C44.4967 20.75 48.75 16.4967 48.75 11.25H46.75C46.75 15.3921 43.3921 18.75 39.25 18.75V20.75ZM38.1184 20.6832C38.4898 20.7273 38.8675 20.75 39.25 20.75V18.75C38.9465 18.75 38.6477 18.732 38.3544 18.6972L38.1184 20.6832ZM35.5978 19.5807L19.5807 35.5978L20.9949 37.012L37.012 20.9949L35.5978 19.5807ZM20.75 39.25C20.75 38.8675 20.7273 38.4898 20.6832 38.1184L18.6972 38.3544C18.732 38.6477 18.75 38.9465 18.75 39.25H20.75ZM11.25 48.75C16.4967 48.75 20.75 44.4967 20.75 39.25H18.75C18.75 43.3921 15.3921 46.75 11.25 46.75V48.75ZM11.2145 43.6789L9.87354 45.0199L11.2878 46.4341L12.6287 45.0932L11.2145 43.6789ZM11.2145 39.4363C12.386 40.6079 12.386 42.5074 11.2145 43.6789L12.6287 45.0932C14.5813 43.1405 14.5813 39.9747 12.6287 38.0221L11.2145 39.4363ZM6.97183 39.4363C8.1434 38.2647 10.0429 38.2647 11.2145 39.4363L12.6287 38.0221C10.6761 36.0695 7.51023 36.0695 5.55761 38.0221L6.97183 39.4363ZM5.72134 40.6868L6.97182 39.4363L5.55761 38.0221L4.30712 39.2726L5.72134 40.6868ZM11.25 29.75C6.00329 29.75 1.75 34.0033 1.75 39.25H3.75C3.75 35.1079 7.10786 31.75 11.25 31.75V29.75ZM12.3368 29.8116C11.9798 29.7709 11.6171 29.75 11.25 29.75V31.75C11.5413 31.75 11.8283 31.7666 12.1102 31.7987L12.3368 29.8116ZM14.8504 30.9128L30.9128 14.8504L29.4986 13.4362L13.4362 29.4986L14.8504 30.9128ZM29.75 11.25C29.75 11.6171 29.7709 11.9798 29.8116 12.3368L31.7987 12.1102C31.7666 11.8283 31.75 11.5413 31.75 11.25H29.75ZM39.25 1.75C34.0033 1.75 29.75 6.00329 29.75 11.25H31.75C31.75 7.10786 35.1079 3.75 39.25 3.75V1.75ZM39.2855 6.82106L40.6265 5.48014L39.2122 4.06593L37.8713 5.40685L39.2855 6.82106ZM46.1929 11.2274C46.3652 11.0551 46.5515 11.0442 46.6483 11.0733C46.6943 11.0872 46.7134 11.1065 46.7208 11.1161C46.7246 11.1212 46.75 11.1534 46.75 11.25H48.75C48.75 10.1869 48.0868 9.41769 47.2248 9.15822C46.402 8.91053 45.4562 9.1357 44.7787 9.81322L46.1929 11.2274ZM4.30712 39.2726C4.1348 39.4449 3.9485 39.4558 3.85167 39.4267C3.80566 39.4128 3.78656 39.3935 3.77921 39.3839C3.77536 39.3788 3.75 39.3466 3.75 39.25H1.75C1.75 40.3131 2.41319 41.0823 3.27518 41.3418C4.098 41.5895 5.04382 41.3643 5.72134 40.6868L4.30712 39.2726ZM39.25 3.75C39.315 3.75 39.3239 3.76617 39.3119 3.75715C39.3045 3.75153 39.3108 3.75176 39.3178 3.77409C39.3327 3.82211 39.3352 3.94296 39.2122 4.06593L40.6265 5.48014C41.2632 4.84335 41.4683 3.95268 41.2272 3.17912C40.9753 2.37061 40.2457 1.75 39.25 1.75V3.75ZM11.25 46.75C11.185 46.75 11.1761 46.7338 11.1881 46.7429C11.1955 46.7485 11.1892 46.7482 11.1822 46.7259C11.1673 46.6779 11.1648 46.557 11.2878 46.4341L9.87354 45.0199C9.23675 45.6567 9.03173 46.5473 9.27277 47.3209C9.5247 48.1294 10.2543 48.75 11.25 48.75V46.75ZM30.9128 14.8504C31.6747 14.0885 31.9045 13.0379 31.7987 12.1102L29.8116 12.3368C29.8654 12.8089 29.7329 13.2019 29.4986 13.4362L30.9128 14.8504ZM19.5807 35.5978C18.8143 36.3641 18.5864 37.4221 18.6972 38.3544L20.6832 38.1184C20.6268 37.6435 20.7593 37.2476 20.9949 37.012L19.5807 35.5978ZM12.1102 31.7987C13.0379 31.9045 14.0885 31.6747 14.8504 30.9128L13.4362 29.4986C13.2019 29.7329 12.8089 29.8654 12.3368 29.8116L12.1102 31.7987ZM38.3544 18.6972C37.4221 18.5864 36.3641 18.8143 35.5978 19.5807L37.012 20.9949C37.2476 20.7593 37.6435 20.6268 38.1184 20.6832L38.3544 18.6972Z" fill="#222222" mask="url(#path-2-inside-1)"/>
<mask id="path-4-inside-2" fill="white">
<path fill-rule="evenodd" clip-rule="evenodd" d="M32.5 26.5L26.5 32.5L39.1969 46.6906C39.2145 46.7158 39.2323 46.7409 39.2502 46.766C40.0684 47.2492 41.0747 47.5821 42.2502 47.7501C45.2878 47.7501 47.7502 45.2876 47.7502 42.2501C47.5735 41.1895 47.2752 40.0972 46.75 39.25L32.5 26.5Z"/>
</mask>
<path fill-rule="evenodd" clip-rule="evenodd" d="M32.5 26.5L26.5 32.5L39.1969 46.6906C39.2145 46.7158 39.2323 46.7409 39.2502 46.766C40.0684 47.2492 41.0747 47.5821 42.2502 47.7501C45.2878 47.7501 47.7502 45.2876 47.7502 42.2501C47.5735 41.1895 47.2752 40.0972 46.75 39.25L32.5 26.5Z" fill="#FA791C"/>
<path d="M26.5 32.5L25.7929 31.7929L25.124 32.4618L25.7548 33.1668L26.5 32.5ZM32.5 26.5L33.1668 25.7548L32.4618 25.124L31.7929 25.7929L32.5 26.5ZM39.1969 46.6906L40.0153 46.116L39.9814 46.0678L39.9421 46.0238L39.1969 46.6906ZM39.2502 46.766L38.4359 47.3464L38.559 47.5192L38.7417 47.6271L39.2502 46.766ZM42.2502 47.7501L42.1088 48.74L42.1792 48.7501H42.2502V47.7501ZM47.7502 42.2501H48.7502V42.1673L48.7366 42.0857L47.7502 42.2501ZM46.75 39.25L47.5999 38.7231L47.5241 38.6008L47.4168 38.5048L46.75 39.25ZM27.2071 33.2071L33.2071 27.2071L31.7929 25.7929L25.7929 31.7929L27.2071 33.2071ZM39.9421 46.0238L27.2452 31.8332L25.7548 33.1668L38.4516 47.3574L39.9421 46.0238ZM40.0646 46.1857C40.048 46.1624 40.0316 46.1392 40.0153 46.116L38.3784 47.2652C38.3974 47.2923 38.4166 47.3194 38.4359 47.3464L40.0646 46.1857ZM42.3916 46.7601C41.3173 46.6067 40.4418 46.3084 39.7587 45.905L38.7417 47.6271C39.6949 48.1901 40.8321 48.5576 42.1088 48.74L42.3916 46.7601ZM46.7502 42.2501C46.7502 44.7354 44.7355 46.7501 42.2502 46.7501V48.7501C45.8401 48.7501 48.7502 45.8399 48.7502 42.2501H46.7502ZM45.9001 39.7769C46.3238 40.4605 46.5951 41.4023 46.7638 42.4145L48.7366 42.0857C48.5518 40.9768 48.2265 39.7339 47.5999 38.7231L45.9001 39.7769ZM31.8332 27.2452L46.0832 39.9952L47.4168 38.5048L33.1668 25.7548L31.8332 27.2452Z" fill="#222222" mask="url(#path-4-inside-2)"/>
<path d="M10.9775 13.8544C10.5132 13.3245 9.84689 13.015 9.14246 13.0022L8.13368 12.9839C7.59492 12.9741 7.1028 12.6761 6.84449 12.2032L3.90659 6.82445C3.58747 6.24019 3.69161 5.51549 4.16236 5.04475L5.04475 4.16236C5.51549 3.69161 6.24019 3.58747 6.82445 3.90659L12.2032 6.84449C12.6761 7.1028 12.9741 7.59492 12.9839 8.13368L13.0022 9.14247C13.015 9.84689 13.3245 10.5132 13.8544 10.9775L31.7568 26.6616C32.4091 27.2332 32.4423 28.2372 31.829 28.8505L28.8506 31.8291C28.2373 32.4424 27.2332 32.4093 26.6616 31.7569L10.9775 13.8544Z" fill="white" stroke="#222222"/>
<rect x="33.8099" y="25.7897" width="1.71624" height="11.3427" rx="0.858118" transform="rotate(45 33.8099 25.7897)" fill="white" stroke="#222222"/>
</svg>
