<svg width="48" height="48" viewBox="0 0 48 48" fill="none" xmlns="http://www.w3.org/2000/svg">
<path d="M10.9714 23.5103C17.0308 23.5103 21.9429 18.5982 21.9429 12.5388C21.9429 6.47945 17.0308 1.56738 10.9714 1.56738C4.91207 1.56738 0 6.47945 0 12.5388C0.00626939 18.5954 4.91489 23.504 10.9714 23.5103ZM10.9714 3.13473C16.1653 3.13473 20.3755 7.34494 20.3755 12.5388C20.3755 17.7327 16.1653 21.9429 10.9714 21.9429C5.77756 21.9429 1.56735 17.7327 1.56735 12.5388C1.5733 7.34713 5.77975 3.14069 10.9714 3.13473Z" fill="#FA8C16"/>
<path d="M10.9717 18.8082C14.4324 18.8044 17.2373 15.9995 17.2411 12.5388H15.6738C15.6738 15.1351 13.568 17.2409 10.9717 17.2409C8.37541 17.2409 6.26968 15.1351 6.26968 12.5388H4.70233C4.70609 15.9995 7.51102 18.8044 10.9717 18.8082Z" fill="#FA8C16"/>
<path d="M13.3226 7.83679H16.4573V9.40414H13.3226V7.83679Z" fill="#FA8C16"/>
<path d="M5.48581 7.83679H8.6205V9.40414H5.48581V7.83679Z" fill="#FA8C16"/>
<path d="M36.0491 26.0571C29.9897 26.0571 25.0777 30.9692 25.0777 37.0286C25.0777 43.0879 29.9897 48 36.0491 48C42.1084 48 47.0205 43.0879 47.0205 37.0286C47.0142 30.972 42.1056 26.0634 36.0491 26.0571ZM36.0491 46.4327C30.8552 46.4327 26.645 42.2224 26.645 37.0286C26.645 31.8347 30.8552 27.6245 36.0491 27.6245C41.243 27.6245 45.4532 31.8347 45.4532 37.0286C45.4472 42.2202 41.2408 46.4267 36.0491 46.4327Z" fill="#FA8C16"/>
<path d="M36.0494 36.2449C32.5887 36.2486 29.7837 39.0536 29.78 42.5143H31.3473C31.3473 39.918 33.4531 37.8122 36.0494 37.8122C38.6457 37.8122 40.7514 39.918 40.7514 42.5143H42.3188C42.315 39.0536 39.5101 36.2486 36.0494 36.2449Z" fill="#FA8C16"/>
<path d="M38.4002 32.3265H41.5349V33.8939H38.4002V32.3265Z" fill="#FA8C16"/>
<path d="M30.563 32.3265H33.6977V33.8939H30.563V32.3265Z" fill="#FA8C16"/>
<path d="M44.6695 0H25.8613C24.5632 0 23.5103 1.05294 23.5103 2.35102V10.821L21.9981 14.5989C21.882 14.89 21.9505 15.2229 22.1721 15.4443C22.3935 15.666 22.7265 15.7344 23.0175 15.6183L26.7954 14.1061H44.6695C45.9675 14.1061 47.0205 13.0532 47.0205 11.7551V2.35102C47.0205 1.05294 45.9675 0 44.6695 0ZM45.4531 11.7551C45.4531 12.188 45.1024 12.5388 44.6695 12.5388H26.645C26.5454 12.5388 26.4467 12.5574 26.3541 12.594L24.1372 13.4792L25.0259 11.2584C25.0607 11.167 25.0779 11.0694 25.0776 10.9714V2.35102C25.0776 1.91812 25.4284 1.56735 25.8613 1.56735H44.6695C45.1024 1.56735 45.4531 1.91812 45.4531 2.35102V11.7551Z" fill="#FA8C16"/>
<path d="M27.4286 3.91833H34.4817V5.48568H27.4286V3.91833Z" fill="#FA8C16"/>
<path d="M35.2653 3.91833H42.3184V5.48568H35.2653V3.91833Z" fill="#FA8C16"/>
<path d="M27.4286 8.62036H33.698V10.1877H27.4286V8.62036Z" fill="#FA8C16"/>
<path d="M34.4818 8.62036H43.8859V10.1877H34.4818V8.62036Z" fill="#FA8C16"/>
<path d="M23.5102 36.8781V28.4081C23.5102 27.1101 22.4573 26.0571 21.1592 26.0571H2.35102C1.05294 26.0571 0 27.1101 0 28.4081V37.8122C0 39.1103 1.05294 40.1633 2.35102 40.1633H20.2251L24.003 41.6754C24.294 41.7916 24.6269 41.7231 24.8484 41.5015C25.07 41.28 25.1385 40.9471 25.0224 40.656L23.5102 36.8781ZM20.6664 38.6511C20.5738 38.6146 20.475 38.5959 20.3755 38.5959H2.35102C1.91812 38.5959 1.56735 38.2451 1.56735 37.8122V28.4081C1.56735 27.9752 1.91812 27.6245 2.35102 27.6245H21.1592C21.5921 27.6245 21.9429 27.9752 21.9429 28.4081V37.0286C21.9429 37.1281 21.9615 37.2268 21.998 37.3195L22.8872 39.5402L20.6664 38.6511Z" fill="#FA8C16"/>
<path d="M12.5386 29.9755H19.5917V31.5428H12.5386V29.9755Z" fill="#FA8C16"/>
<path d="M4.70233 29.9755H11.7554V31.5428H4.70233V29.9755Z" fill="#FA8C16"/>
<path d="M10.9716 34.2858H19.592V35.8531H10.9716V34.2858Z" fill="#FA8C16"/>
<path d="M3.13489 34.2858H10.188V35.8531H3.13489V34.2858Z" fill="#FA8C16"/>
</svg>
