<svg width="504" height="257" viewBox="0 0 504 257" fill="none" xmlns="http://www.w3.org/2000/svg">
<path d="M1 213.5H505" stroke="black"/>
<path d="M1 43.5V213.5" stroke="black"/>
<path d="M1 213.5H505" stroke="#F5F5F5"/>
<path d="M1 256H505" stroke="#F5F5F5"/>
<path d="M1 171H505" stroke="#F5F5F5"/>
<path d="M1 128.5H505" stroke="#F5F5F5"/>
<path d="M1 86H505" stroke="#F5F5F5"/>
<path d="M1 43.5H505" stroke="#F5F5F5"/>
<path d="M1 1H505" stroke="#F5F5F5"/>
<path d="M1 2.0625V256" stroke="#F5F5F5"/>
<path d="M57 2.0625V256" stroke="#F5F5F5"/>
<path d="M113 2.0625V256" stroke="#F5F5F5"/>
<path d="M169 2.0625V256" stroke="#F5F5F5"/>
<path d="M225 2.0625V256" stroke="#F5F5F5"/>
<path d="M281 2.0625V256" stroke="#F5F5F5"/>
<path d="M337 2.0625V256" stroke="#F5F5F5"/>
<path d="M393 2.0625V256" stroke="#F5F5F5"/>
<path d="M449 2.0625V256" stroke="#F5F5F5"/>
<path d="M505 2.0625V256" stroke="#F5F5F5"/>
<path d="M1 112.86L57 94.6702L113 204.15L169 89.9102L225 142.44L281 233.518L337 149.92L393 117.96L449 190.21L505 210.78" stroke="#E8E8E8"/>
<path d="M1 146.35L57 109.46L113 113.37L169 77.6695L225 200.41L281 142.27L337 173.89L393 159.61L449 72.0595L505 44.5195" stroke="#E8E8E8"/>
</svg>
