<svg width="504" height="257" viewBox="0 0 504 257" fill="none" xmlns="http://www.w3.org/2000/svg">
<rect x="8" y="9" width="72" height="16" rx="8" fill="#F5F5F5"/>
<rect x="8" y="43" width="72" height="8" rx="4" fill="#F5F5F5"/>
<rect x="8" y="71" width="72" height="8" rx="4" fill="#F5F5F5"/>
<rect x="8" y="99" width="72" height="8" rx="4" fill="#F5F5F5"/>
<rect x="8" y="127" width="72" height="8" rx="4" fill="#F5F5F5"/>
<rect x="8" y="155" width="72" height="8" rx="4" fill="#F5F5F5"/>
<rect x="8" y="183" width="72" height="8" rx="4" fill="#F5F5F5"/>
<rect x="8" y="211" width="72" height="8" rx="4" fill="#F5F5F5"/>
<rect x="8" y="239" width="72" height="8" rx="4" fill="#F5F5F5"/>
<rect x="121" y="9" width="72" height="16" rx="8" fill="#F5F5F5"/>
<rect x="121" y="43" width="72" height="8" rx="4" fill="#F5F5F5"/>
<rect x="121" y="71" width="72" height="8" rx="4" fill="#F5F5F5"/>
<rect x="121" y="99" width="72" height="8" rx="4" fill="#F5F5F5"/>
<rect x="121" y="127" width="72" height="8" rx="4" fill="#F5F5F5"/>
<rect x="121" y="155" width="72" height="8" rx="4" fill="#F5F5F5"/>
<rect x="121" y="183" width="72" height="8" rx="4" fill="#F5F5F5"/>
<rect x="121" y="211" width="72" height="8" rx="4" fill="#F5F5F5"/>
<rect x="121" y="239" width="72" height="8" rx="4" fill="#F5F5F5"/>
<rect x="234" y="9" width="96" height="16" rx="8" fill="#F5F5F5"/>
<rect x="234" y="43" width="96" height="8" rx="4" fill="#F5F5F5"/>
<rect x="234" y="71" width="96" height="8" rx="4" fill="#F5F5F5"/>
<rect x="234" y="99" width="96" height="8" rx="4" fill="#F5F5F5"/>
<rect x="234" y="127" width="96" height="8" rx="4" fill="#F5F5F5"/>
<rect x="234" y="155" width="96" height="8" rx="4" fill="#F5F5F5"/>
<rect x="234" y="183" width="96" height="8" rx="4" fill="#F5F5F5"/>
<rect x="234" y="211" width="96" height="8" rx="4" fill="#F5F5F5"/>
<rect x="234" y="239" width="96" height="8" rx="4" fill="#F5F5F5"/>
<rect x="371" y="9" width="96" height="16" rx="8" fill="#F5F5F5"/>
<rect x="371" y="43" width="118" height="8" rx="4" fill="#F5F5F5"/>
<rect x="371" y="71" width="118" height="8" rx="4" fill="#F5F5F5"/>
<rect x="371" y="99" width="118" height="8" rx="4" fill="#F5F5F5"/>
<rect x="371" y="127" width="118" height="8" rx="4" fill="#F5F5F5"/>
<rect x="371" y="155" width="118" height="8" rx="4" fill="#F5F5F5"/>
<rect x="371" y="183" width="118" height="8" rx="4" fill="#F5F5F5"/>
<rect x="371" y="211" width="118" height="8" rx="4" fill="#F5F5F5"/>
<rect x="371" y="239" width="118" height="8" rx="4" fill="#F5F5F5"/>
<line x1="4.37114e-08" y1="0.5" x2="504" y2="0.500044" stroke="#F5F5F5"/>
<line x1="4.37114e-08" y1="32.5" x2="504" y2="32.5" stroke="#F5F5F5"/>
<line x1="4.37114e-08" y1="60.5" x2="504" y2="60.5" stroke="#F5F5F5"/>
<line x1="4.37114e-08" y1="88.5" x2="504" y2="88.5" stroke="#F5F5F5"/>
<line x1="4.37114e-08" y1="116.5" x2="504" y2="116.5" stroke="#F5F5F5"/>
<line x1="4.37114e-08" y1="144.5" x2="504" y2="144.5" stroke="#F5F5F5"/>
<line x1="4.37114e-08" y1="172.5" x2="504" y2="172.5" stroke="#F5F5F5"/>
<line x1="4.37114e-08" y1="200.5" x2="504" y2="200.5" stroke="#F5F5F5"/>
<line x1="4.37114e-08" y1="228.5" x2="504" y2="228.5" stroke="#F5F5F5"/>
<line x1="4.37114e-08" y1="256.5" x2="504" y2="256.5" stroke="#F5F5F5"/>
</svg>
